<?xml version="1.0" standalone="no"?>
<!DOCTYPE svg PUBLIC "-//W3C//DTD SVG 1.1//EN" "http://www.w3.org/Graphics/SVG/1.1/DTD/svg11.dtd">
<svg width="100%" height="100%" viewBox="0 0 128 128" version="1.1" xmlns="http://www.w3.org/2000/svg" xmlns:xlink="http://www.w3.org/1999/xlink" xml:space="preserve" style="fill-rule:evenodd;clip-rule:evenodd;stroke-linecap:round;stroke-linejoin:round;stroke-miterlimit:1.41421;">
    <g id="SlitScan">
        <g id="net.sf.openfx.FrameHold">
            <path d="M70.1215,1.8478C66.0503,1.44683 61.9497,1.44683 57.8785,1.8478L58.9019,12.2379C62.2924,11.904 65.7076,11.904 69.0981,12.2379L70.1215,1.8478ZM38.2252,7.11389C34.4991,8.8022 30.9478,10.8525 27.6226,13.2353L33.7039,21.7218C36.4732,19.7373 39.4308,18.0298 42.5341,16.6237L38.2252,7.11389ZM13.2353,27.6226C10.8525,30.9478 8.8022,34.4991 7.11389,38.2252L16.6237,42.5341C18.0298,39.4308 19.7373,36.4732 21.7218,33.7039L13.2353,27.6226ZM1.8478,57.8785C1.44683,61.9497 1.44683,66.0503 1.8478,70.1215L12.2379,69.0981C11.904,65.7076 11.904,62.2924 12.2379,58.9019L1.8478,57.8785ZM7.11389,89.7748C8.8022,93.5009 10.8525,97.0522 13.2353,100.377L21.7218,94.2961C19.7373,91.5268 18.0298,88.5692 16.6237,85.4659L7.11389,89.7748ZM27.6226,114.765C30.9478,117.147 34.4991,119.198 38.2252,120.886L42.5341,111.376C39.4308,109.97 36.4732,108.263 33.7039,106.278L27.6226,114.765ZM57.8785,126.152C61.9497,126.553 66.0503,126.553 70.1215,126.152L69.0981,115.762C65.7076,116.096 62.2924,116.096 58.9019,115.762L57.8785,126.152ZM89.7748,120.886C93.5009,119.198 97.0522,117.147 100.377,114.765L94.2961,106.278C91.5268,108.263 88.5692,109.97 85.4659,111.376L89.7748,120.886ZM114.765,100.377C117.147,97.0522 119.198,93.5009 120.886,89.7748L111.376,85.4659C109.97,88.5692 108.263,91.5268 106.278,94.2961L114.765,100.377ZM126.152,70.1215C126.553,66.0503 126.553,61.9497 126.152,57.8785L115.762,58.9019C116.096,62.2924 116.096,65.7076 115.762,69.0981L126.152,70.1215ZM120.886,38.2252C119.198,34.4991 117.147,30.9478 114.765,27.6226L106.278,33.7039C108.263,36.4732 109.97,39.4308 111.376,42.5341L120.886,38.2252ZM100.377,13.2353C97.0522,10.8525 93.5009,8.8022 89.7748,7.11389L85.4659,16.6237C88.5692,18.0298 91.5268,19.7373 94.2961,21.7218L100.377,13.2353Z" style="fill:rgb(128,128,128);"/>
            <path d="M54.7294,58.6771C48.2297,70.9991 65.05,79.483 71.4253,67.746C84.7017,43.3042 51.3292,25.1307 38.0335,49.6082C19.3872,83.936 71.1266,110.197 89,77.2923" style="fill:none;stroke-width:10px;stroke:rgb(191,191,191);"/>
        </g>
    </g>
</svg>
