<?xml version="1.0" encoding="UTF-8" standalone="no"?>
<!DOCTYPE svg PUBLIC "-//W3C//DTD SVG 1.1//EN" "http://www.w3.org/Graphics/SVG/1.1/DTD/svg11.dtd">
<svg width="100%" height="100%" viewBox="0 0 128 128" version="1.1" xmlns="http://www.w3.org/2000/svg" xmlns:xlink="http://www.w3.org/1999/xlink" xml:space="preserve" style="fill-rule:evenodd;clip-rule:evenodd;stroke-linejoin:round;stroke-miterlimit:1.41421;">
    <g transform="matrix(1,0,0,1,-232,-1776)">
        <g id="PIK" transform="matrix(1,0,0,1,-1370.5,1775.99)">
            <rect x="1602.5" y="0" width="128" height="128" style="fill:none;"/>
            <g transform="matrix(1,0,0,1,0,9)">
                <g id="Love" transform="matrix(-2.17067,-2.6583e-16,2.67196e-16,-2.18182,3124.25,717.509)">
                    <path d="M661.5,286.9C661.3,286.9 661.1,286.9 660.9,286.9C657.2,287.1 653.6,289.3 651.4,292.6C649.4,295.7 648.9,299.4 650.1,302.6C651.5,306.4 655,309.8 658.1,312.8C658.8,313.5 659.5,314.2 660.1,314.8C662.3,317 664.5,319.1 666.6,321.1C667.8,322.2 669.067,323.4 670.267,324.6L671.567,325.9L672.967,324.7C676.929,321.117 680.811,317.376 684.8,313.4C685.201,313.001 685.6,312.5 686.1,312.1C689,309.1 692.7,305.4 693.5,300.9C694.1,297.2 693.2,293.6 691,291C688.9,288.5 685.8,287.1 682.4,287.1C682.2,287.1 682.1,287.1 681.9,287.1C676.5,287.3 673.482,290 671.582,292.4C669.782,289.9 666.3,286.9 661.5,286.9Z" style="fill:rgb(142,189,141);"/>
                </g>
                <g transform="matrix(1,0,0,1.04444,1370.5,-1856.47)">
                    <path d="M298.452,1853.11C298.452,1864.58 306.315,1873.54 316,1873.54L316,1878.44C315.561,1878.44 315.125,1878.45 314.694,1878.49L277.306,1878.49C276.875,1878.45 276.439,1878.44 276,1878.44L276,1873.54C285.685,1873.54 293.548,1864.59 293.548,1853.11L298.452,1853.11Z" style="fill:rgb(142,189,141);"/>
                </g>
            </g>
        </g>
    </g>
</svg>
