<?xml version="1.0" encoding="iso-8859-1"?>
<!-- Generator: Adobe Illustrator 16.0.3, SVG Export Plug-In . SVG Version: 6.00 Build 0)  -->
<!DOCTYPE svg PUBLIC "-//W3C//DTD SVG 1.1//EN" "http://www.w3.org/Graphics/SVG/1.1/DTD/svg11.dtd">
<svg version="1.1" xmlns="http://www.w3.org/2000/svg" xmlns:xlink="http://www.w3.org/1999/xlink" x="0px" y="0px" width="128px"
	 height="128px" viewBox="0 0 128 128" style="enable-background:new 0 0 128 128;" xml:space="preserve">
<g id="Dr_Noise">
	<g>
		<rect y="8" style="fill:#999999;" width="8" height="8"/>
		<rect y="24" style="fill:#999999;" width="8" height="8"/>
		<rect y="40" style="fill:#999999;" width="8" height="8"/>
		<rect y="56" style="fill:#999999;" width="8" height="8"/>
		<rect y="72" style="fill:#999999;" width="8" height="8"/>
		<rect y="88" style="fill:#999999;" width="8" height="8"/>
		<rect y="104" style="fill:#999999;" width="8" height="8"/>
		<rect y="120" style="fill:#999999;" width="8" height="8"/>
		<rect x="8" style="fill:#999999;" width="8" height="8"/>
		<rect x="8" y="16" style="fill:#999999;" width="8" height="8"/>
		<rect x="8" y="32" style="fill:#999999;" width="8" height="8"/>
		<rect x="8" y="48" style="fill:#999999;" width="8" height="8"/>
		<rect x="8" y="64" style="fill:#999999;" width="8" height="8"/>
		<rect x="8" y="80" style="fill:#999999;" width="8" height="8"/>
		<rect x="8" y="96" style="fill:#999999;" width="8" height="8"/>
		<rect x="8" y="112" style="fill:#999999;" width="8" height="8"/>
		<rect x="16" y="8" style="fill:#999999;" width="8" height="8"/>
		<rect x="16" y="24" style="fill:#999999;" width="8" height="8"/>
		<rect x="16" y="40" style="fill:#999999;" width="8" height="8"/>
		<rect x="16" y="56" style="fill:#999999;" width="8" height="8"/>
		<rect x="16" y="72" style="fill:#999999;" width="8" height="8"/>
		<rect x="16" y="88" style="fill:#999999;" width="8" height="8"/>
		<rect x="16" y="104" style="fill:#999999;" width="8" height="8"/>
		<rect x="16" y="120" style="fill:#999999;" width="8" height="8"/>
		<rect x="24" style="fill:#999999;" width="8" height="8"/>
		<rect x="24" y="16" style="fill:#999999;" width="8" height="8"/>
		<rect x="24" y="32" style="fill:#999999;" width="8" height="8"/>
		<rect x="24" y="48" style="fill:#999999;" width="8" height="8"/>
		<rect x="24" y="64" style="fill:#999999;" width="8" height="8"/>
		<rect x="24" y="80" style="fill:#999999;" width="8" height="8"/>
		<rect x="24" y="96" style="fill:#999999;" width="8" height="8"/>
		<rect x="24" y="112" style="fill:#999999;" width="8" height="8"/>
		<rect x="32" y="8" style="fill:#999999;" width="8" height="8"/>
		<rect x="32" y="24" style="fill:#999999;" width="8" height="8"/>
		<rect x="32" y="40" style="fill:#999999;" width="8" height="8"/>
		<rect x="32" y="56" style="fill:#999999;" width="8" height="8"/>
		<rect x="32" y="72" style="fill:#999999;" width="8" height="8"/>
		<rect x="32" y="88" style="fill:#999999;" width="8" height="8"/>
		<rect x="32" y="104" style="fill:#999999;" width="8" height="8"/>
		<rect x="32" y="120" style="fill:#999999;" width="8" height="8"/>
		<rect x="40" style="fill:#999999;" width="8" height="8"/>
		<rect x="40" y="16" style="fill:#999999;" width="8" height="8"/>
		<rect x="40" y="32" style="fill:#999999;" width="8" height="8"/>
		<rect x="40" y="48" style="fill:#999999;" width="8" height="8"/>
		<rect x="40" y="64" style="fill:#999999;" width="8" height="8"/>
		<rect x="40" y="80" style="fill:#999999;" width="8" height="8"/>
		<rect x="40" y="96" style="fill:#999999;" width="8" height="8"/>
		<rect x="40" y="112" style="fill:#999999;" width="8" height="8"/>
		<rect x="48" y="8" style="fill:#999999;" width="8" height="8"/>
		<rect x="48" y="24" style="fill:#999999;" width="8" height="8"/>
		<rect x="48" y="40" style="fill:#999999;" width="8" height="8"/>
		<rect x="48" y="56" style="fill:#999999;" width="8" height="8"/>
		<rect x="48" y="72" style="fill:#999999;" width="8" height="8"/>
		<rect x="48" y="88" style="fill:#999999;" width="8" height="8"/>
		<rect x="48" y="104" style="fill:#999999;" width="8" height="8"/>
		<rect x="48" y="120" style="fill:#999999;" width="8" height="8"/>
		<rect x="56" style="fill:#999999;" width="8" height="8"/>
		<rect x="56" y="16" style="fill:#999999;" width="8" height="8"/>
		<rect x="56" y="32" style="fill:#999999;" width="8" height="8"/>
		<rect x="56" y="48" style="fill:#999999;" width="8" height="8"/>
		<rect x="56" y="64" style="fill:#999999;" width="8" height="8"/>
		<rect x="56" y="80" style="fill:#999999;" width="8" height="8"/>
		<rect x="56" y="96" style="fill:#999999;" width="8" height="8"/>
		<rect x="56" y="112" style="fill:#999999;" width="8" height="8"/>
		<rect x="64" y="8" style="fill:#999999;" width="8" height="8"/>
		<rect x="64" y="24" style="fill:#999999;" width="8" height="8"/>
		<rect x="64" y="40" style="fill:#999999;" width="8" height="8"/>
		<rect x="64" y="56" style="fill:#999999;" width="8" height="8"/>
		<rect x="64" y="72" style="fill:#999999;" width="8" height="8"/>
		<rect x="64" y="88" style="fill:#999999;" width="8" height="8"/>
		<rect x="64" y="104" style="fill:#999999;" width="8" height="8"/>
		<rect x="64" y="120" style="fill:#999999;" width="8" height="8"/>
		<rect x="72" style="fill:#999999;" width="8" height="8"/>
		<rect x="72" y="16" style="fill:#999999;" width="8" height="8"/>
		<rect x="72" y="32" style="fill:#999999;" width="8" height="8"/>
		<rect x="72" y="48" style="fill:#999999;" width="8" height="8"/>
		<rect x="72" y="64" style="fill:#999999;" width="8" height="8"/>
		<rect x="72" y="80" style="fill:#999999;" width="8" height="8"/>
		<rect x="72" y="96" style="fill:#999999;" width="8" height="8"/>
		<rect x="72" y="112" style="fill:#999999;" width="8" height="8"/>
		<rect x="80" y="8" style="fill:#999999;" width="8" height="8"/>
		<rect x="80" y="24" style="fill:#999999;" width="8" height="8"/>
		<rect x="80" y="40" style="fill:#999999;" width="8" height="8"/>
		<rect x="80" y="56" style="fill:#999999;" width="8" height="8"/>
		<rect x="80" y="72" style="fill:#999999;" width="8" height="8"/>
		<rect x="80" y="88" style="fill:#999999;" width="8" height="8"/>
		<rect x="80" y="104" style="fill:#999999;" width="8" height="8"/>
		<rect x="80" y="120" style="fill:#999999;" width="8" height="8"/>
		<rect x="88" style="fill:#999999;" width="8" height="8"/>
		<rect x="88" y="16" style="fill:#999999;" width="8" height="8"/>
		<rect x="88" y="32" style="fill:#999999;" width="8" height="8"/>
		<rect x="88" y="48" style="fill:#999999;" width="8" height="8"/>
		<rect x="88" y="64" style="fill:#999999;" width="8" height="8"/>
		<rect x="88" y="80" style="fill:#999999;" width="8" height="8"/>
		<rect x="88" y="96" style="fill:#999999;" width="8" height="8"/>
		<rect x="88" y="112" style="fill:#999999;" width="8" height="8"/>
		<rect x="96" y="8" style="fill:#999999;" width="8" height="8"/>
		<rect x="96" y="24" style="fill:#999999;" width="8" height="8"/>
		<rect x="96" y="40" style="fill:#999999;" width="8" height="8"/>
		<rect x="96" y="56" style="fill:#999999;" width="8" height="8"/>
		<rect x="96" y="72" style="fill:#999999;" width="8" height="8"/>
		<rect x="96" y="88" style="fill:#999999;" width="8" height="8"/>
		<rect x="96" y="104" style="fill:#999999;" width="8" height="8"/>
		<rect x="96" y="120" style="fill:#999999;" width="8" height="8"/>
		<rect x="104" style="fill:#999999;" width="8" height="8"/>
		<rect x="104" y="16" style="fill:#999999;" width="8" height="8"/>
		<rect x="104" y="32" style="fill:#999999;" width="8" height="8"/>
		<rect x="104" y="48" style="fill:#999999;" width="8" height="8"/>
		<rect x="104" y="64" style="fill:#999999;" width="8" height="8"/>
		<rect x="104" y="80" style="fill:#999999;" width="8" height="8"/>
		<rect x="104" y="96" style="fill:#999999;" width="8" height="8"/>
		<rect x="104" y="112" style="fill:#999999;" width="8" height="8"/>
		<rect x="112" y="8" style="fill:#999999;" width="8" height="8"/>
		<rect x="112" y="24" style="fill:#999999;" width="8" height="8"/>
		<rect x="112" y="40" style="fill:#999999;" width="8" height="8"/>
		<rect x="112" y="56" style="fill:#999999;" width="8" height="8"/>
		<rect x="112" y="72" style="fill:#999999;" width="8" height="8"/>
		<rect x="112" y="88" style="fill:#999999;" width="8" height="8"/>
		<rect x="112" y="104" style="fill:#999999;" width="8" height="8"/>
		<rect x="112" y="120" style="fill:#999999;" width="8" height="8"/>
		<rect x="120" style="fill:#999999;" width="8" height="8"/>
		<rect x="120" y="16" style="fill:#999999;" width="8" height="8"/>
		<rect x="120" y="32" style="fill:#999999;" width="8" height="8"/>
		<rect x="120" y="48" style="fill:#999999;" width="8" height="8"/>
		<rect x="120" y="64" style="fill:#999999;" width="8" height="8"/>
		<rect x="120" y="80" style="fill:#999999;" width="8" height="8"/>
		<rect x="120" y="96" style="fill:#999999;" width="8" height="8"/>
		<rect x="120" y="112" style="fill:#999999;" width="8" height="8"/>
	</g>
</g>
<g id="Layer_1">
</g>
</svg>
