<?xml version="1.0" standalone="no"?>
<!DOCTYPE svg PUBLIC "-//W3C//DTD SVG 1.1//EN" "http://www.w3.org/Graphics/SVG/1.1/DTD/svg11.dtd">
<svg width="128px" height="128px" version="1.1" xmlns="http://www.w3.org/2000/svg" xmlns:xlink="http://www.w3.org/1999/xlink" xml:space="preserve" style="fill-rule:evenodd;clip-rule:evenodd;stroke-linejoin:round;stroke-miterlimit:1.41421;">
    <g>
        <g id="Fi GodRay">
            <g>
                <path d="M77.9262,21.0993L85.6316,44.8142L105.805,30.1576L98.0993,53.8725L123.035,53.8725L102.862,68.5291L123.035,83.1858L98.0993,83.1858L105.805,106.901L85.6316,92.2441L77.9262,115.959L70.2207,92.2441L50.0476,106.901L57.753,83.1858L32.8177,83.1858L52.9908,68.5291L32.8177,53.8725L57.753,53.8725L50.0476,30.1576L70.2207,44.8142L77.9262,21.0993Z" style="fill:white;"/>
                <path d="M77.9262,103.015L83.5287,85.7719L98.1963,96.4286L92.5937,79.1858L110.724,79.1858L96.0563,68.5291L110.724,57.8725L92.5937,57.8725L98.1963,40.6297L83.5287,51.2864L77.9262,34.0436L72.3236,51.2864L57.656,40.6297L63.2586,57.8725L45.1284,57.8725L59.796,68.5291L45.1284,79.1858L63.2586,79.1858L57.656,96.4286L72.3236,85.7719L77.9262,103.015ZM77.9262,128.903L68.1178,98.7162L42.4391,117.373L52.2475,87.1858L20.5069,87.1858L46.1856,68.5291L20.5069,49.8725L52.2475,49.8725L42.4391,19.6855L68.1178,38.3421L77.9262,8.15502L87.7345,38.3421L113.413,19.6855L103.605,49.8725L135.345,49.8725L109.667,68.5291L135.345,87.1858L103.605,87.1858L113.413,117.373L87.7345,98.7162L77.9262,128.903Z" style="fill:rgb(200,200,200);"/>
            </g>
            <g>
                <path d="M15.0917,95.6869C14.7829,95.7071 14.4713,95.7173 14.1573,95.7173C6.33843,95.7173 0,89.3789 0,81.56C0,73.7412 6.33843,67.4028 14.1573,67.4028C14.7822,67.4028 15.3976,67.4432 16.0007,67.5218C18.0091,63.3284 22.2923,60.4326 27.2518,60.4326C29.921,60.4326 32.3943,61.2714 34.4227,62.7C35.3291,53.8585 42.7987,46.9618 51.8792,46.9618C61.5711,46.9618 69.428,54.8187 69.428,64.5106L69.5414,64.511C70.9515,64.5199 72.322,64.6951 73.6339,65.018C76.9475,64.8964 80.2795,66.0531 82.8355,68.4219C85.1089,66.0136 88.3312,64.5106 91.9045,64.5106C98.7913,64.5106 104.374,70.0935 104.374,76.9804C104.374,83.8672 98.7913,89.4501 91.9045,89.4501C89.7539,89.4501 87.7304,88.9057 85.9645,87.9472C83.5449,94.7431 77.0546,99.6082 69.428,99.6082C68.8983,99.6082 68.374,99.5847 67.8556,99.5386C67.1898,100.401 66.4238,101.207 65.5588,101.94C59.4582,107.105 50.5615,106.809 44.821,101.544C43.0254,102.164 41.0983,102.5 39.0926,102.5C34.6251,102.5 30.5475,100.831 27.4495,98.0818C26.0425,99.2722 24.2226,99.99 22.2351,99.99C19.1373,99.99 16.4468,98.2463 15.0917,95.6869Z" style="fill:rgb(102,102,102);"/>
            </g>
        </g>
    </g>
</svg>
