<?xml version="1.0" standalone="no"?>
<!DOCTYPE svg PUBLIC "-//W3C//DTD SVG 1.1//EN" "http://www.w3.org/Graphics/SVG/1.1/DTD/svg11.dtd">
<svg width="100%" height="100%" viewBox="0 0 128 128" version="1.1" xmlns="http://www.w3.org/2000/svg" xmlns:xlink="http://www.w3.org/1999/xlink" xml:space="preserve" style="fill-rule:evenodd;clip-rule:evenodd;stroke-linejoin:round;stroke-miterlimit:1.41421;">
    <g id="Co Color Correct">
        <path d="M73.8457,40.146L87.4777,46.225C88.4517,44.052 89.1277,41.716 89.4537,39.27L74.6137,37.333" style="fill:#4e4eb3;fill-rule:nonzero;"/>
        <path d="M87.271,25.1548L73.727,31.6188C73.724,31.6128 73.712,31.6078 73.709,31.6018C73.69,31.5638 73.679,31.5638 73.697,31.6018C74.301,32.8588 74.63,34.7678 74.574,34.4108L89.388,32.0878C89.017,29.6438 88.292,27.3158 87.271,25.1548" style="fill:#874eb3;fill-rule:nonzero;"/>
        <path d="M69.8691,27.3145C69.8561,27.3065 69.8431,27.2985 69.8291,27.2915C70.6971,27.8225 71.4781,28.4785 72.1501,29.2335C72.1371,29.2185 72.1231,29.2045 72.1101,29.1895L83.2881,19.1425C81.6891,17.3485 79.8381,15.7855 77.7891,14.5075L69.8691,27.3145Z" style="fill:#b34ea5;fill-rule:nonzero;"/>
        <path d="M54.3198,37.5283C54.2448,37.0303 54.2058,36.5203 54.2058,36.0023C54.2058,35.5043 54.2428,35.0153 54.3118,34.5363C54.3098,34.5523 54.3058,34.5683 54.3038,34.5843L39.4828,32.5183C39.3328,33.6293 39.2548,34.7613 39.2548,35.9123C39.2548,37.1983 39.3518,38.4623 39.5368,39.6973L54.3168,37.5073C54.3178,37.5133 54.3188,37.5213 54.3198,37.5283" style="fill:#a0b34e;fill-rule:nonzero;"/>
        <path d="M55.0156,31.7783C55.0156,31.7793 54.9086,31.7813 54.9086,31.7823L54.9086,31.7833C54.9086,31.7853 55.0116,31.7863 55.0116,31.7883C55.4216,30.8863 56.0116,30.0543 56.6546,29.3163C56.6526,29.3173 56.6776,29.3193 56.6756,29.3213L45.3426,19.4683C43.7756,21.2883 42.4166,23.3343 41.4156,25.5513L55.0156,31.7783Z" style="fill:#b38c4e;fill-rule:nonzero;"/>
        <path d="M61.6563,45.9102C61.5843,45.8832 60.2273,45.4732 58.9673,44.6752L51.0383,57.2522C53.0533,58.5232 55.2613,59.5172 57.6083,60.1792L61.6563,45.9102Z" style="fill:#4eb37e;fill-rule:nonzero;"/>
        <path d="M56.7607,42.7495C56.7737,42.7645 56.7867,42.7785 56.8007,42.7935C56.1297,42.0425 55.5687,41.1945 55.1417,40.2705C55.1467,40.2825 55.1527,40.2935 55.1567,40.3055L41.6357,46.6185C42.6647,48.8095 44.0007,50.8285 45.5877,52.6195L56.7607,42.7495Z" style="fill:#5fb34e;fill-rule:nonzero;"/>
        <path d="M58.9121,27.4082C58.9061,27.4122 58.9001,27.4172 58.8941,27.4212C58.7641,27.5052 58.7641,27.5112 58.8941,27.4272C59.7131,26.8982 60.6121,26.4892 61.5691,26.2092L61.5711,26.2292C61.7201,26.1862 61.7201,26.1632 61.5711,26.2062L61.5621,26.1972L57.3321,11.7262C54.9861,12.4172 52.7821,13.4392 50.7751,14.7402L58.9121,27.4082Z" style="fill:#b3684e;fill-rule:nonzero;"/>
        <path d="M64,26L64.359,26C65.315,26 66.294,26.022 67.172,26.267C67.16,26.263 67.175,26.206 67.163,26.202L71.157,11.781C69.022,11.193 66.675,11 64.354,11L64,11L64,26Z" style="fill:#b34e6d;fill-rule:nonzero;"/>
        <path d="M67.4487,45.8027C66.5047,46.0897 64.5547,46.2667 64.5547,46.2667L64.6777,61.1207C67.1337,61.1007 69.5067,60.7287 71.7467,60.0537L67.4487,45.8027Z" style="fill:#4eb3b3;fill-rule:nonzero;"/>
        <path d="M72.2852,42.6172C72.2862,42.6152 72.2882,42.6132 72.2892,42.6122C72.2912,42.6092 72.2942,42.6062 72.2962,42.6042C72.2982,42.6012 72.3002,42.5992 72.3022,42.5972C72.3062,42.5932 72.3092,42.5892 72.3122,42.5842C72.3142,42.5822 72.3162,42.5802 72.3182,42.5772C72.3212,42.5752 72.3232,42.5712 72.3262,42.5692C72.3272,42.5662 72.3292,42.5642 72.3312,42.5622C72.3352,42.5572 72.3392,42.5542 72.3432,42.5492C72.3442,42.5472 72.3462,42.5452 72.3472,42.5432C72.3502,42.5392 72.3522,42.5372 72.3552,42.5332C72.3572,42.5312 72.3592,42.5292 72.3602,42.5272C72.3642,42.5222 72.3682,42.5182 72.3722,42.5132C72.3732,42.5122 72.3752,42.5112 72.3762,42.5092C72.3782,42.5072 72.3792,42.5052 72.3812,42.5032C71.7022,43.3222 70.8972,44.0342 69.9972,44.6092C69.9992,44.6072 70.0022,44.6062 70.0052,44.6042C70.0062,44.6032 70.0072,44.6022 70.0092,44.6012C70.0132,44.5992 70.0162,44.5962 70.0202,44.5952C70.0212,44.5942 70.0222,44.5932 70.0242,44.5922C70.0302,44.5882 70.0362,44.5842 70.0422,44.5802C70.0442,44.5792 70.0462,44.5772 70.0482,44.5762C70.0522,44.5742 70.0552,44.5722 70.0582,44.5702C70.0602,44.5682 70.0622,44.5672 70.0642,44.5652C70.0702,44.5622 70.0752,44.5592 70.0802,44.5552C70.0822,44.5542 70.0852,44.5532 70.0872,44.5512C70.0892,44.5502 70.0902,44.5492 70.0912,44.5482L78.2542,57.0202C80.2622,55.7052 82.0712,54.1132 83.6262,52.2962L72.2852,42.6172Z" style="fill:#4e88b3;fill-rule:nonzero;"/>
        <path d="M109.846,94.146L123.478,100.225C124.452,98.052 125.128,95.716 125.454,93.27L110.614,91.333" style="fill:#4e4eb3;fill-rule:nonzero;"/>
        <path d="M123.271,79.1548L109.727,85.6188C109.724,85.6128 109.712,85.6078 109.709,85.6018C109.69,85.5638 109.679,85.5638 109.697,85.6018C110.301,86.8588 110.63,88.7678 110.574,88.4108L125.388,86.0878C125.017,83.6438 124.292,81.3158 123.271,79.1548" style="fill:#874eb3;fill-rule:nonzero;"/>
        <path d="M105.869,81.3145C105.856,81.3065 105.843,81.2985 105.829,81.2915C106.697,81.8225 107.478,82.4785 108.15,83.2335C108.137,83.2185 108.123,83.2045 108.11,83.1895L119.288,73.1425C117.689,71.3485 115.838,69.7855 113.789,68.5075L105.869,81.3145Z" style="fill:#b34ea5;fill-rule:nonzero;"/>
        <path d="M90.3198,91.5283C90.2448,91.0303 90.2058,90.5203 90.2058,90.0023C90.2058,89.5043 90.2428,89.0153 90.3118,88.5363C90.3098,88.5523 90.3058,88.5683 90.3038,88.5843L75.4828,86.5183C75.3328,87.6293 75.2548,88.7613 75.2548,89.9123C75.2548,91.1983 75.3518,92.4623 75.5368,93.6973L90.3168,91.5073C90.3178,91.5133 90.3188,91.5213 90.3198,91.5283" style="fill:#a0b34e;fill-rule:nonzero;"/>
        <path d="M91.0156,85.7783C91.0156,85.7793 90.9086,85.7813 90.9086,85.7823L90.9086,85.7833C90.9086,85.7853 91.0116,85.7863 91.0116,85.7883C91.4216,84.8863 92.0116,84.0543 92.6546,83.3163C92.6526,83.3173 92.6776,83.3193 92.6756,83.3213L81.3426,73.4683C79.7756,75.2883 78.4166,77.3343 77.4156,79.5513L91.0156,85.7783Z" style="fill:#b38c4e;fill-rule:nonzero;"/>
        <path d="M97.6563,99.9102C97.5843,99.8832 96.2273,99.4732 94.9673,98.6752L87.0383,111.252C89.0533,112.523 91.2613,113.517 93.6083,114.179L97.6563,99.9102Z" style="fill:#4eb37e;fill-rule:nonzero;"/>
        <path d="M92.7607,96.7495C92.7737,96.7645 92.7867,96.7785 92.8007,96.7935C92.1297,96.0425 91.5687,95.1945 91.1417,94.2705C91.1467,94.2825 91.1527,94.2935 91.1567,94.3055L77.6357,100.618C78.6647,102.809 80.0007,104.828 81.5877,106.62L92.7607,96.7495Z" style="fill:#5fb34e;fill-rule:nonzero;"/>
        <path d="M94.9121,81.4082C94.9061,81.4122 94.9001,81.4172 94.8941,81.4212C94.7641,81.5052 94.7641,81.5112 94.8941,81.4272C95.7131,80.8982 96.6121,80.4892 97.5691,80.2092L97.5711,80.2292C97.7201,80.1862 97.7201,80.1632 97.5711,80.2062L97.5621,80.1972L93.3321,65.7262C90.9861,66.4172 88.7821,67.4392 86.7751,68.7402L94.9121,81.4082Z" style="fill:#b3684e;fill-rule:nonzero;"/>
        <path d="M100,80L100.359,80C101.315,80 102.294,80.022 103.172,80.267C103.16,80.263 103.175,80.206 103.163,80.202L107.157,65.781C105.022,65.193 102.675,65 100.354,65L100,65L100,80Z" style="fill:#b34e6d;fill-rule:nonzero;"/>
        <path d="M103.449,99.8027C102.505,100.09 100.555,100.267 100.555,100.267L100.678,115.121C103.134,115.101 105.507,114.729 107.747,114.054L103.449,99.8027Z" style="fill:#4eb3b3;fill-rule:nonzero;"/>
        <path d="M108.285,96.6172C108.286,96.6152 108.288,96.6132 108.289,96.6122C108.291,96.6092 108.294,96.6062 108.296,96.6042C108.298,96.6012 108.3,96.5992 108.302,96.5972C108.306,96.5932 108.309,96.5892 108.312,96.5842C108.314,96.5822 108.316,96.5802 108.318,96.5772C108.321,96.5752 108.323,96.5712 108.326,96.5692C108.327,96.5662 108.329,96.5642 108.331,96.5622C108.335,96.5572 108.339,96.5542 108.343,96.5492C108.344,96.5472 108.346,96.5452 108.347,96.5432C108.35,96.5392 108.352,96.5372 108.355,96.5332C108.357,96.5312 108.359,96.5292 108.36,96.5272C108.364,96.5222 108.368,96.5182 108.372,96.5132C108.373,96.5122 108.375,96.5112 108.376,96.5092C108.378,96.5072 108.379,96.5052 108.381,96.5032C107.702,97.3222 106.897,98.0342 105.997,98.6092C105.999,98.6072 106.002,98.6062 106.005,98.6042C106.006,98.6032 106.007,98.6022 106.009,98.6012C106.013,98.5992 106.016,98.5962 106.02,98.5952C106.021,98.5942 106.022,98.5932 106.024,98.5922C106.03,98.5882 106.036,98.5842 106.042,98.5802C106.044,98.5792 106.046,98.5772 106.048,98.5762C106.052,98.5742 106.055,98.5722 106.058,98.5702C106.06,98.5682 106.062,98.5672 106.064,98.5652C106.07,98.5622 106.075,98.5592 106.08,98.5552C106.082,98.5542 106.085,98.5532 106.087,98.5512C106.089,98.5502 106.09,98.5492 106.091,98.5482L114.254,111.02C116.262,109.705 118.071,108.113 119.626,106.296L108.285,96.6172Z" style="fill:#4e88b3;fill-rule:nonzero;"/>
        <path d="M35.8457,94.146L49.4777,100.225C50.4517,98.052 51.1277,95.716 51.4537,93.27L36.6137,91.333" style="fill:#4e4eb3;fill-rule:nonzero;"/>
        <path d="M49.271,79.1548L35.727,85.6188C35.724,85.6128 35.712,85.6078 35.709,85.6018C35.69,85.5638 35.679,85.5638 35.697,85.6018C36.301,86.8588 36.63,88.7678 36.574,88.4108L51.388,86.0878C51.017,83.6438 50.292,81.3158 49.271,79.1548" style="fill:#874eb3;fill-rule:nonzero;"/>
        <path d="M31.8691,81.3145C31.8561,81.3065 31.8431,81.2985 31.8291,81.2915C32.6971,81.8225 33.4781,82.4785 34.1501,83.2335C34.1371,83.2185 34.1231,83.2045 34.1101,83.1895L45.2881,73.1425C43.6891,71.3485 41.8381,69.7855 39.7891,68.5075L31.8691,81.3145Z" style="fill:#b34ea5;fill-rule:nonzero;"/>
        <path d="M16.3198,91.5283C16.2448,91.0303 16.2058,90.5203 16.2058,90.0023C16.2058,89.5043 16.2428,89.0153 16.3118,88.5363C16.3098,88.5523 16.3058,88.5683 16.3038,88.5843L1.4828,86.5183C1.3328,87.6293 1.2548,88.7613 1.2548,89.9123C1.2548,91.1983 1.3518,92.4623 1.5368,93.6973L16.3168,91.5073C16.3178,91.5133 16.3188,91.5213 16.3198,91.5283" style="fill:#a0b34e;fill-rule:nonzero;"/>
        <path d="M17.0156,85.7783C17.0156,85.7793 16.9086,85.7813 16.9086,85.7823L16.9086,85.7833C16.9086,85.7853 17.0116,85.7863 17.0116,85.7883C17.4216,84.8863 18.0116,84.0543 18.6546,83.3163C18.6526,83.3173 18.6776,83.3193 18.6756,83.3213L7.3426,73.4683C5.7756,75.2883 4.4166,77.3343 3.4156,79.5513L17.0156,85.7783Z" style="fill:#b38c4e;fill-rule:nonzero;"/>
        <path d="M23.6563,99.9102C23.5843,99.8832 22.2273,99.4732 20.9673,98.6752L13.0383,111.252C15.0533,112.523 17.2613,113.517 19.6083,114.179L23.6563,99.9102Z" style="fill:#4eb37e;fill-rule:nonzero;"/>
        <path d="M18.7607,96.7495C18.7737,96.7645 18.7867,96.7785 18.8007,96.7935C18.1297,96.0425 17.5687,95.1945 17.1417,94.2705C17.1467,94.2825 17.1527,94.2935 17.1567,94.3055L3.6357,100.618C4.6647,102.809 6.0007,104.828 7.5877,106.62L18.7607,96.7495Z" style="fill:#5fb34e;fill-rule:nonzero;"/>
        <path d="M20.9121,81.4082C20.9061,81.4122 20.9001,81.4172 20.8941,81.4212C20.7641,81.5052 20.7641,81.5112 20.8941,81.4272C21.7131,80.8982 22.6121,80.4892 23.5691,80.2092L23.5711,80.2292C23.7201,80.1862 23.7201,80.1632 23.5711,80.2062L23.5621,80.1972L19.3321,65.7262C16.9861,66.4172 14.7821,67.4392 12.7751,68.7402L20.9121,81.4082Z" style="fill:#b3684e;fill-rule:nonzero;"/>
        <path d="M26,80L26.359,80C27.315,80 28.294,80.022 29.172,80.267C29.16,80.263 29.175,80.206 29.163,80.202L33.157,65.781C31.022,65.193 28.675,65 26.354,65L26,65L26,80Z" style="fill:#b34e6d;fill-rule:nonzero;"/>
        <path d="M29.4487,99.8027C28.5047,100.09 26.5547,100.267 26.5547,100.267L26.6777,115.121C29.1337,115.101 31.5067,114.729 33.7467,114.054L29.4487,99.8027Z" style="fill:#4eb3b3;fill-rule:nonzero;"/>
        <path d="M34.2852,96.6172C34.2862,96.6152 34.2882,96.6132 34.2892,96.6122C34.2912,96.6092 34.2942,96.6062 34.2962,96.6042C34.2982,96.6012 34.3002,96.5992 34.3022,96.5972C34.3062,96.5932 34.3092,96.5892 34.3122,96.5842C34.3142,96.5822 34.3162,96.5802 34.3182,96.5772C34.3212,96.5752 34.3232,96.5712 34.3262,96.5692C34.3272,96.5662 34.3292,96.5642 34.3312,96.5622C34.3352,96.5572 34.3392,96.5542 34.3432,96.5492C34.3442,96.5472 34.3462,96.5452 34.3472,96.5432C34.3502,96.5392 34.3522,96.5372 34.3552,96.5332C34.3572,96.5312 34.3592,96.5292 34.3602,96.5272C34.3642,96.5222 34.3682,96.5182 34.3722,96.5132C34.3732,96.5122 34.3752,96.5112 34.3762,96.5092C34.3782,96.5072 34.3792,96.5052 34.3812,96.5032C33.7022,97.3222 32.8972,98.0342 31.9972,98.6092C31.9992,98.6072 32.0022,98.6062 32.0052,98.6042C32.0062,98.6032 32.0072,98.6022 32.0092,98.6012C32.0132,98.5992 32.0162,98.5962 32.0202,98.5952C32.0212,98.5942 32.0222,98.5932 32.0242,98.5922C32.0302,98.5882 32.0362,98.5842 32.0422,98.5802C32.0442,98.5792 32.0462,98.5772 32.0482,98.5762C32.0522,98.5742 32.0552,98.5722 32.0582,98.5702C32.0602,98.5682 32.0622,98.5672 32.0642,98.5652C32.0702,98.5622 32.0752,98.5592 32.0802,98.5552C32.0822,98.5542 32.0852,98.5532 32.0872,98.5512C32.0892,98.5502 32.0902,98.5492 32.0912,98.5482L40.2542,111.02C42.2622,109.705 44.0712,108.113 45.6262,106.296L34.2852,96.6172Z" style="fill:#4e88b3;fill-rule:nonzero;"/>
    </g>
</svg>
