<?xml version="1.0" encoding="UTF-8" standalone="no"?>
<!DOCTYPE svg PUBLIC "-//W3C//DTD SVG 1.1//EN" "http://www.w3.org/Graphics/SVG/1.1/DTD/svg11.dtd">
<svg width="100%" height="100%" viewBox="0 0 128 128" version="1.1" xmlns="http://www.w3.org/2000/svg" xmlns:xlink="http://www.w3.org/1999/xlink" xml:space="preserve" style="fill-rule:evenodd;clip-rule:evenodd;stroke-linejoin:round;stroke-miterlimit:1.41421;">
    <g transform="matrix(1,0,0,1,-1282,-1526)">
        <g id="EdgeDetect" transform="matrix(1,0,0,1,-1114.5,1525.5)">
            <rect x="2396" y="0" width="128" height="128" style="fill:none;"/>
            <g id="EdgeDetect1" transform="matrix(1,0,0,1,2396,0)">
                <g transform="matrix(1,0,0,1,-1350.5,-1541.5)">
                    <path d="M1411.62,1541.5C1423.01,1560.15 1429.57,1582.06 1429.57,1605.5C1429.57,1628.93 1423.01,1650.84 1411.62,1669.5L1350.5,1669.5L1350.5,1541.5L1411.62,1541.5Z" style="fill:rgb(128,128,128);"/>
                </g>
                <g transform="matrix(1,0,0,1,-1350.5,-1541.5)">
                    <path d="M1417.44,1541.5C1418.46,1543.26 1419.44,1545.05 1420.37,1546.86C1423.18,1552.29 1425.59,1557.92 1427.58,1563.69C1429.61,1569.56 1431.21,1575.57 1432.36,1581.66C1434.92,1595.26 1435.26,1609.28 1433.39,1622.99C1432.45,1629.83 1430.96,1636.59 1428.93,1643.19C1427.09,1649.17 1424.8,1655.01 1422.1,1660.66C1420.66,1663.66 1419.11,1666.61 1417.44,1669.5L1405.72,1669.5C1408.51,1665.17 1411.03,1660.67 1413.24,1656.02C1415.66,1650.92 1417.71,1645.64 1419.37,1640.25C1421.24,1634.17 1422.62,1627.94 1423.48,1621.64C1425.26,1608.63 1424.87,1595.31 1422.32,1582.43C1421.21,1576.83 1419.69,1571.31 1417.77,1565.94C1416.01,1560.97 1413.9,1556.13 1411.49,1551.45C1409.73,1548.04 1407.8,1544.72 1405.72,1541.5L1417.44,1541.5Z" style="fill:rgb(200,200,200);"/>
                </g>
            </g>
        </g>
    </g>
</svg>
