<?xml version="1.0" standalone="no"?><!DOCTYPE svg PUBLIC "-//W3C//DTD SVG 1.1//EN" "http://www.w3.org/Graphics/SVG/1.1/DTD/svg11.dtd"><svg width="100%" height="100%" viewBox="0 0 128 128" version="1.1" xmlns="http://www.w3.org/2000/svg" xmlns:xlink="http://www.w3.org/1999/xlink" xml:space="preserve" style="fill-rule:evenodd;clip-rule:evenodd;stroke-linejoin:round;stroke-miterlimit:1.41421;"><g id="BLOOM"><path d="M109.934,15.519c0,0 -44.064,49.788 -44.732,73.782c-0.69,24.774 11.601,33.647 30.163,33.344c15.432,-0.252 28.854,-9.016 28.416,-31.035c-0.239,-11.991 -10.098,-26.547 -16.445,-35.741c-14.542,-21.067 2.598,-40.35 2.598,-40.35" style="fill:#999;fill-rule:nonzero;"/><path d="M112.578,77.102c2.251,5.304 2.334,10.334 0.186,11.235c-2.149,0.902 -5.717,-2.669 -7.968,-7.973c-2.251,-5.304 -2.334,-10.334 -0.185,-11.235c2.149,-0.902 5.716,2.669 7.967,7.973" style="fill:#e6e6e6;fill-rule:nonzero;"/><path d="M49.729,6.519c0,0 -30.08,33.987 -30.536,50.366c-0.471,16.912 7.919,22.969 20.59,22.762c10.535,-0.172 19.697,-6.154 19.398,-21.185c-0.163,-8.186 -6.893,-18.122 -11.226,-24.399c-9.927,-14.381 1.774,-27.544 1.774,-27.544" style="fill:#999;fill-rule:nonzero;"/><path d="M51.534,48.558c1.536,3.62 1.593,7.054 0.126,7.669c-1.466,0.616 -3.902,-1.822 -5.439,-5.443c-1.536,-3.62 -1.593,-7.054 -0.126,-7.669c1.467,-0.616 3.902,1.822 5.439,5.443" style="fill:#e6e6e6;fill-rule:nonzero;"/></g></svg>