<?xml version="1.0" standalone="no"?>
<!DOCTYPE svg PUBLIC "-//W3C//DTD SVG 1.1//EN" "http://www.w3.org/Graphics/SVG/1.1/DTD/svg11.dtd">
<svg width="100%" height="100%" viewBox="0 0 128 128" version="1.1" xmlns="http://www.w3.org/2000/svg" xmlns:xlink="http://www.w3.org/1999/xlink" xml:space="preserve" style="fill-rule:evenodd;clip-rule:evenodd;stroke-linejoin:round;stroke-miterlimit:1.41421;">
    <g id="NoTimeBlur">
        <g transform="matrix(0.997571,0,0,0.997571,0.155433,0.155433)">
            <path d="M70.136,1.696C66.055,1.295 61.945,1.295 57.864,1.696L58.889,12.112C62.288,11.777 65.712,11.777 69.111,12.112L70.136,1.696ZM38.162,6.975C34.427,8.668 30.867,10.723 27.534,13.112L33.63,21.619C36.406,19.63 39.371,17.918 42.482,16.508L38.162,6.975ZM13.112,27.534C10.723,30.867 8.668,34.427 6.975,38.162L16.508,42.482C17.918,39.371 19.63,36.406 21.619,33.63L13.112,27.534ZM1.696,57.864C1.295,61.945 1.295,66.055 1.696,70.136L12.112,69.111C11.777,65.712 11.777,62.288 12.112,58.889L1.696,57.864ZM6.975,89.838C8.668,93.573 10.723,97.133 13.112,100.466L21.619,94.37C19.63,91.594 17.918,88.629 16.508,85.518L6.975,89.838ZM27.534,114.888C30.867,117.277 34.427,119.332 38.162,121.025L42.482,111.492C39.371,110.082 36.406,108.37 33.63,106.381L27.534,114.888ZM57.864,126.304C61.945,126.705 66.055,126.705 70.136,126.304L69.111,115.888C65.712,116.223 62.288,116.223 58.889,115.888L57.864,126.304ZM89.838,121.025C93.573,119.332 97.133,117.277 100.466,114.888L94.37,106.381C91.594,108.37 88.629,110.082 85.518,111.492L89.838,121.025ZM114.888,100.466C117.277,97.133 119.332,93.573 121.025,89.838L111.492,85.518C110.082,88.629 108.37,91.594 106.381,94.37L114.888,100.466ZM126.304,70.136C126.705,66.055 126.705,61.945 126.304,57.864L115.888,58.889C116.223,62.288 116.223,65.712 115.888,69.111L126.304,70.136ZM121.025,38.162C119.332,34.427 117.277,30.867 114.888,27.534L106.381,33.63C108.37,36.406 110.082,39.371 111.492,42.482L121.025,38.162ZM100.466,13.112C97.133,10.723 93.573,8.668 89.838,6.975L85.518,16.508C88.629,17.918 91.594,19.63 94.37,21.619L100.466,13.112Z" style="fill:rgb(128,128,128);"/>
        </g>
        <g transform="matrix(0.591872,0,0,0.591872,26.9364,26.9365)">
            <path d="M98.383,19.537L116.687,44.881L63.184,112.463L15.313,44.881L36.433,19.537" style="fill:rgb(179,179,179);fill-rule:nonzero;"/>
        </g>
        <g transform="matrix(0.591872,0,0,0.591872,26.9364,26.9365)">
            <path d="M98.383,46L80.079,20.656L66,46L98.383,46Z" style="fill:rgb(230,230,230);fill-rule:nonzero;"/>
        </g>
    </g>
</svg>
