<?xml version="1.0" encoding="UTF-8" standalone="no"?>
<!DOCTYPE svg PUBLIC "-//W3C//DTD SVG 1.1//EN" "http://www.w3.org/Graphics/SVG/1.1/DTD/svg11.dtd">
<svg width="100%" height="100%" viewBox="0 0 128 128" version="1.1" xmlns="http://www.w3.org/2000/svg" xmlns:xlink="http://www.w3.org/1999/xlink" xml:space="preserve" style="fill-rule:evenodd;clip-rule:evenodd;stroke-linejoin:round;stroke-miterlimit:1.41421;">
    <g transform="matrix(1,0,0,1,-1281,-1398)">
        <g id="ShaderToy" transform="matrix(1,0,0,1,-143,1397.99)">
            <rect x="1424.5" y="0" width="128" height="128" style="fill:none;"/>
            <g transform="matrix(0.521621,0,0,0.521621,1394.94,-28.2274)">
                <path d="M171.333,212C171.333,212 172.335,189.335 140.667,191.667C108.999,193.999 99.333,226.985 99.333,242C99.333,261.667 109.611,296.032 162.667,295.667C215.116,295.306 250.2,266.884 251.639,221.311C253.657,157.403 182.623,141.986 182.333,103C182.14,76.967 199.051,72.906 209.383,72.573C219.715,72.239 232.668,75.665 232.667,92.333C232.665,112.665 219,119.333 219,119.333C219,119.333 223.667,128.333 235,126.667C246.333,125 260.335,115.668 259.333,93.333C258.332,70.999 241.096,57.703 206.143,57.952C163.282,58.258 138.502,86.67 138,109.333C136.808,163.094 200.697,174.458 201.332,229.332C201.681,259.446 181.003,271.333 162.335,269.667C145.044,268.123 136.762,257.818 136.095,243.619C134.547,210.654 171.333,212 171.333,212Z" style="fill:rgb(200,200,200);"/>
            </g>
        </g>
    </g>
</svg>
