<?xml version="1.0" standalone="no"?>
<!DOCTYPE svg PUBLIC "-//W3C//DTD SVG 1.1//EN" "http://www.w3.org/Graphics/SVG/1.1/DTD/svg11.dtd">
<svg width="100%" height="100%" viewBox="0 0 128 128" version="1.1" xmlns="http://www.w3.org/2000/svg" xmlns:xlink="http://www.w3.org/1999/xlink" xml:space="preserve" style="fill-rule:evenodd;clip-rule:evenodd;stroke-linejoin:round;stroke-miterlimit:1.41421;">
    <g id="Ke ChromaKeyer">
        <g>
            <path d="M76.0059,34.1162L64.7869,22.8972L47.9589,39.7252L59.1769,50.9452L15.7039,94.4182L5.8879,121.464L33.1339,111.847L76.6079,68.3742L87.6259,79.3922L104.454,62.5642L93.4359,51.5462C93.4359,51.5462 145.958,47.5472 112.982,14.5702C80.0049,-18.4058 76.0059,34.1162 76.0059,34.1162" style="fill:#3d993d;fill-rule:nonzero;"/>
            <path d="M0.903211,126.405L13.1113,92.7682L54.9345,50.945L43.7164,39.725L64.7869,18.6546L73.8487,27.7164L73.8888,27.49L73.9623,27.0872L74.0395,26.6761L74.1205,26.2573L74.2054,25.831L74.2941,25.3977L74.3869,24.9577L74.4838,24.5115L74.5849,24.0593L74.6898,23.6039L74.7446,23.3708L74.8,23.1387L74.8566,22.9054L74.9142,22.671L74.973,22.4355L75.033,22.1989L75.0941,21.9613L75.1564,21.7227L75.2198,21.4833L75.2845,21.2429L75.3503,21.0017L75.4174,20.7598L75.4857,20.5171L75.5553,20.2737L75.6261,20.0297L75.6981,19.785L75.7715,19.5399L75.8461,19.2942L75.9221,19.048L75.9993,18.8015L76.0779,18.5545L76.1579,18.3073L76.2392,18.0598L76.3219,17.812L76.4059,17.5641L76.4914,17.316L76.5783,17.0678L76.6666,16.8196L76.7563,16.5713L76.8475,16.3231L76.9402,16.075L77.0344,15.827L77.1301,15.5792L77.2273,15.3316L77.3261,15.0843L77.4264,14.8372L77.5283,14.5906L77.6318,14.3443L77.7369,14.0984L77.8436,13.8531L77.9519,13.6083L78.0619,13.364L78.1737,13.1204L78.2871,12.8774L78.4022,12.6352L78.5191,12.3937L78.6377,12.153L78.7582,11.9131L78.8804,11.6742L79.0045,11.4361L79.1304,11.1991L79.2582,10.9631L79.388,10.7282L79.5196,10.4944L79.6532,10.2617L79.7888,10.0303L79.9263,9.80008L80.0659,9.57122L80.2076,9.34371L80.3513,9.11762L80.4972,8.89299L80.6452,8.66987L80.7954,8.44829L80.9478,8.22831L81.1024,8.01003L81.2593,7.79344L81.4184,7.57862L81.5799,7.36564L81.7438,7.15453L81.9101,6.94535L82.0788,6.73818L82.2499,6.53308L82.4236,6.33008L82.5997,6.12929L82.7752,5.93441L82.8688,5.8324L82.9598,5.73457L83.0514,5.63736L83.1438,5.54071L83.2367,5.44474L83.3304,5.34933L83.4247,5.25456L83.5197,5.16045L83.6154,5.06697L83.7118,4.97415L83.8088,4.88203L83.9066,4.79056L84.005,4.69979L84.1041,4.60973L84.204,4.52032L84.3046,4.43169L84.4059,4.34376L84.5078,4.25658L84.6105,4.17016L84.714,4.08449L84.8181,3.9996L84.923,3.91548L85.0286,3.83215L85.135,3.74962L85.2421,3.66792L85.3498,3.58708L85.4584,3.50704L85.5677,3.42786L85.6777,3.34956L85.7885,3.27209L85.9,3.19554L86.0123,3.1199L86.1253,3.04519L86.2391,2.97136L86.3536,2.89848L86.4689,2.82658L86.5849,2.75559L86.7017,2.68561L86.8192,2.61664L86.9375,2.54864L87.0565,2.48166L87.1762,2.41572L87.2967,2.35081L87.418,2.28694L87.54,2.22416L87.6627,2.16246L87.7862,2.10183L87.9104,2.04234L88.0353,1.98395L88.161,1.9267L88.2874,1.87059L88.4145,1.81563L88.5424,1.76185L88.6709,1.70925L88.8001,1.65785L88.9301,1.60766L89.0607,1.55869L89.192,1.51096L89.3241,1.46445L89.4568,1.41922L89.5901,1.37525L89.7242,1.33256L89.8589,1.29116L89.9942,1.25106L90.1302,1.21227L90.2669,1.17481L90.4041,1.13868L90.542,1.1039L90.6805,1.07047L90.8196,1.0384L90.9593,1.00771L91.0996,0.978396L91.2405,0.950473L91.3819,0.923946L91.5239,0.898829L91.6665,0.875124L91.8096,0.852841L91.9533,0.831988L92.0975,0.812571L92.2422,0.794595L92.3874,0.778068L92.5331,0.762997L92.6794,0.749387L92.8261,0.737241L92.9733,0.726567L93.1209,0.717369L93.269,0.709651L93.4176,0.703418L93.5666,0.698674L93.7161,0.695421L93.866,0.693664L94.0163,0.693406L94.167,0.694651L94.3182,0.697399L94.4697,0.701655L94.6216,0.707421L94.774,0.714698L94.9267,0.723488L95.0798,0.733795L95.2332,0.745617L95.387,0.758958L95.5412,0.773818L95.6958,0.7902L95.8507,0.808103L96.0059,0.827528L96.1615,0.848477L96.3174,0.87095L96.4736,0.894946L96.6302,0.92047L96.7871,0.94752L96.9443,0.976094L97.1019,1.0062L97.2598,1.03783L97.4179,1.07098L97.5765,1.10567L97.7353,1.14188L97.8944,1.17961L98.0539,1.21889L98.2136,1.25969L98.3737,1.30202L98.5341,1.34588L98.6947,1.39126L98.8557,1.43818L99.017,1.48664L99.1786,1.53661L99.3405,1.58814L99.5027,1.6412L99.6653,1.69578L99.8281,1.7519L99.9913,1.80956L100.155,1.86876L100.318,1.92949L100.483,1.99177L100.647,2.0556L100.812,2.12097L100.977,2.18787L101.142,2.25632L101.308,2.32633L101.474,2.39788L101.64,2.47098L101.807,2.54564L101.974,2.62188L102.142,2.69966L102.309,2.77899L102.477,2.85989L102.646,2.94235L102.815,3.02639L102.984,3.11201L103.153,3.19918L103.323,3.28796L103.493,3.3783L103.664,3.47023L103.835,3.56375L104.006,3.65885L104.178,3.75556L104.35,3.85386L104.522,3.95376L104.695,4.05527L104.869,4.15838L105.042,4.2631L105.216,4.36947L105.391,4.47746L105.566,4.58703L105.741,4.69824L105.917,4.81111L106.093,4.9256L106.269,5.04177L106.446,5.15956L106.624,5.27895L106.801,5.40007L106.98,5.52284L107.158,5.64727L107.337,5.77337L107.517,5.90112L107.697,6.03059L107.877,6.16172L108.058,6.29454L108.24,6.42907L108.422,6.56531L108.604,6.70326L108.787,6.8429L108.97,6.98426L109.154,7.12735L109.338,7.27218L109.523,7.41871L109.708,7.56702L109.894,7.71705L110.08,7.86881L110.266,8.02239L110.454,8.17771L110.641,8.33476L110.829,8.49361L111.018,8.65423L111.207,8.81664L111.397,8.98083L111.587,9.14684L111.778,9.31463L111.969,9.48424L112.161,9.65567L112.353,9.82889L112.546,10.004L112.74,10.1809L112.934,10.3596L113.128,10.5402L113.323,10.7226L113.519,10.9069L113.715,11.0931L113.911,11.2811L114.109,11.471L114.306,11.6628L114.505,11.8564L114.704,12.052L114.903,12.2495L115.103,12.4489L115.303,12.649L115.5,12.8484L115.696,13.0473L115.889,13.2457L116.081,13.4435L116.271,13.6407L116.459,13.8373L116.645,14.0335L116.829,14.2291L117.012,14.4241L117.192,14.6186L117.371,14.8125L117.548,15.0059L117.723,15.1987L117.896,15.3911L118.068,15.5829L118.237,15.7741L118.405,15.9649L118.571,16.1551L118.735,16.3448L118.898,16.534L119.059,16.7227L119.217,16.9109L119.374,17.0985L119.53,17.2857L119.683,17.4724L119.835,17.6585L119.985,17.8442L120.133,18.0294L120.28,18.2141L120.425,18.3984L120.568,18.5821L120.709,18.7653L120.849,18.9481L120.987,19.1305L121.123,19.3123L121.258,19.4937L121.39,19.6746L121.522,19.8551L121.651,20.0351L121.779,20.2147L121.905,20.3939L122.029,20.5725L122.152,20.7507L122.273,20.9286L122.393,21.106L122.51,21.2829L122.626,21.4594L122.741,21.6355L122.854,21.8112L122.965,21.9865L123.075,22.1614L123.183,22.3358L123.289,22.5099L123.394,22.6835L123.497,22.8568L123.598,23.0297L123.698,23.2022L123.797,23.3742L123.893,23.546L123.988,23.7173L124.082,23.8882L124.174,24.0588L124.264,24.2291L124.353,24.3989L124.44,24.5684L124.526,24.7376L124.61,24.9063L124.692,25.0747L124.773,25.2428L124.852,25.4106L124.93,25.5779L125.006,25.7451L125.081,25.9117L125.154,26.0781L125.226,26.2441L125.296,26.4099L125.364,26.5753L125.431,26.7403L125.497,26.9051L125.56,27.0695L125.623,27.2335L125.683,27.3974L125.743,27.5609L125.8,27.7239L125.856,27.8868L125.911,28.0494L125.964,28.2116L126.015,28.3735L126.065,28.535L126.114,28.6964L126.161,28.8574L126.206,29.0181L126.25,29.1784L126.292,29.3384L126.333,29.4983L126.372,29.6577L126.41,29.8167L126.446,29.9756L126.481,30.1341L126.514,30.2923L126.546,30.4503L126.576,30.6077L126.605,30.765L126.632,30.9219L126.657,31.0784L126.681,31.2347L126.704,31.3907L126.725,31.5462L126.744,31.7015L126.762,31.8563L126.778,32.0108L126.793,32.1651L126.806,32.3189L126.818,32.4724L126.829,32.6253L126.837,32.778L126.845,32.9305L126.85,33.0825L126.855,33.2339L126.857,33.385L126.859,33.5358L126.858,33.6861L126.857,33.8361L126.853,33.9855L126.849,34.1344L126.842,34.283L126.835,34.4313L126.826,34.5788L126.815,34.726L126.803,34.8728L126.789,35.0189L126.774,35.1647L126.757,35.31L126.74,35.4546L126.72,35.5988L126.699,35.7424L126.677,35.8856L126.653,36.0283L126.628,36.1702L126.602,36.3117L126.574,36.4524L126.544,36.5928L126.514,36.7326L126.482,36.8716L126.448,37.01L126.413,37.1479L126.377,37.2853L126.34,37.4219L126.301,37.5579L126.261,37.6933L126.22,37.8278L126.177,37.962L126.133,38.0953L126.088,38.228L126.041,38.3601L125.993,38.4914L125.944,38.6221L125.894,38.752L125.843,38.8813L125.79,39.0097L125.736,39.1376L125.682,39.2647L125.625,39.391L125.568,39.5167L125.51,39.6418L125.45,39.7659L125.39,39.8894L125.328,40.012L125.265,40.134L125.201,40.2554L125.136,40.3759L125.07,40.4956L125.003,40.6146L124.935,40.733L124.866,40.8504L124.797,40.9671L124.725,41.0833L124.654,41.1985L124.581,41.313L124.507,41.4268L124.432,41.5398L124.357,41.6521L124.28,41.7636L124.203,41.8744L124.124,41.9845L124.045,42.0938L123.965,42.2022L123.884,42.3101L123.802,42.4172L123.72,42.5235L123.637,42.6291L123.553,42.7339L123.468,42.8381L123.382,42.9416L123.295,43.0443L123.208,43.1462L123.12,43.2475L123.032,43.3481L122.942,43.448L122.852,43.5471L122.762,43.6455L122.67,43.7433L122.578,43.8404L122.485,43.9367L122.392,44.0324L122.298,44.1274L122.203,44.2217L122.107,44.3153L122.011,44.4084L121.915,44.5006L121.818,44.5923L121.72,44.6834L121.618,44.7769L121.423,44.9523L121.222,45.1285L121.019,45.3022L120.814,45.4733L120.607,45.642L120.398,45.8083L120.186,45.9722L119.973,46.1336L119.759,46.2928L119.542,46.4497L119.324,46.6043L119.104,46.7567L118.882,46.9069L118.659,47.0549L118.434,47.2008L118.208,47.3445L117.981,47.4862L117.752,47.6258L117.522,47.7633L117.29,47.8989L117.058,48.0325L116.824,48.1641L116.589,48.2939L116.353,48.4217L116.116,48.5476L115.878,48.6717L115.639,48.7939L115.399,48.9144L115.158,49.033L114.917,49.1499L114.675,49.265L114.432,49.3784L114.188,49.4902L113.944,49.6002L113.699,49.7085L113.454,49.8153L113.208,49.9204L112.962,50.0238L112.715,50.1257L112.468,50.226L112.22,50.3248L111.973,50.422L111.725,50.5177L111.477,50.6119L111.229,50.7046L110.981,50.7958L110.733,50.8855L110.484,50.9738L110.236,51.0607L109.988,51.1462L109.74,51.2302L109.492,51.3129L109.245,51.3942L108.998,51.4742L108.751,51.5528L108.504,51.63L108.258,51.706L108.012,51.7806L107.767,51.854L107.522,51.926L107.278,51.9968L107.035,52.0664L106.792,52.1347L106.55,52.2018L106.309,52.2676L106.069,52.3323L105.829,52.3957L105.591,52.458L105.353,52.5191L105.117,52.579L104.881,52.6379L104.647,52.6955L104.413,52.752L104.181,52.8075L103.948,52.8623L103.493,52.9672L103.041,53.0683L102.594,53.1652L102.154,53.258L101.721,53.3467L101.295,53.4316L100.876,53.5126L100.465,53.5898L100.062,53.6633L99.8357,53.7034L108.697,62.5642L87.6259,83.6348L76.6079,72.6168L34.7741,114.45L0.903211,126.405ZM10.8726,116.523L31.4937,109.245L76.6079,64.1316L87.6259,75.1496L100.211,62.5642L86.741,49.0939L93.3261,48.5449L93.4894,48.5302L93.7212,48.5079L94.0164,48.4777L94.3746,48.4386L94.5716,48.4162L94.7848,48.3911L95.0115,48.3637L95.2512,48.3337L95.5036,48.3013L95.7683,48.2662L96.0448,48.2285L96.3327,48.1881L96.6317,48.1448L96.9414,48.0987L97.2612,48.0496L97.5909,47.9975L97.93,47.9424L98.2782,47.8842L98.6349,47.8227L98.9998,47.758L99.3725,47.69L99.7526,47.6186L100.14,47.5438L100.533,47.4654L100.933,47.3835L101.339,47.298L101.749,47.2088L102.165,47.1158L102.588,47.0185L102.797,46.9693L103.01,46.9185L103.223,46.8667L103.438,46.814L103.653,46.7603L103.869,46.7055L104.086,46.6498L104.303,46.5931L104.521,46.5353L104.74,46.4765L104.959,46.4167L105.178,46.3559L105.398,46.294L105.618,46.2311L105.839,46.1671L106.059,46.1021L106.28,46.036L106.501,45.9689L106.722,45.9006L106.944,45.8313L107.165,45.761L107.386,45.6895L107.606,45.617L107.827,45.5433L108.048,45.4686L108.268,45.3928L108.488,45.3158L108.707,45.2378L108.926,45.1586L109.144,45.0784L109.362,44.997L109.579,44.9145L109.796,44.8309L110.012,44.7461L110.227,44.6603L110.441,44.5733L110.654,44.4852L110.867,44.396L111.078,44.3056L111.288,44.2141L111.497,44.1215L111.705,44.0278L111.912,43.933L112.118,43.837L112.322,43.74L112.525,43.6418L112.726,43.5425L112.926,43.442L113.125,43.3405L113.322,43.2379L113.517,43.1342L113.71,43.0295L113.902,42.9236L114.092,42.8166L114.28,42.7086L114.466,42.5996L114.651,42.4894L114.833,42.3783L115.013,42.2661L115.191,42.1529L115.367,42.0386L115.541,41.9234L115.712,41.8072L115.881,41.69L116.048,41.5718L116.213,41.4527L116.375,41.3327L116.534,41.2117L116.691,41.0898L116.846,40.9671L116.997,40.8434L117.147,40.7189L117.293,40.5936L117.437,40.4674L117.582,40.3371L117.648,40.2765L117.716,40.2126L117.785,40.1484L117.852,40.084L117.919,40.0194L117.985,39.9547L118.05,39.8897L118.114,39.8246L118.178,39.7593L118.241,39.6937L118.304,39.628L118.365,39.5622L118.426,39.4961L118.486,39.4298L118.546,39.3635L118.605,39.2969L118.662,39.2302L118.72,39.1632L118.776,39.0961L118.832,39.0289L118.887,38.9615L118.941,38.8939L118.995,38.8261L119.047,38.7582L119.099,38.6901L119.15,38.6219L119.201,38.5533L119.251,38.4847L119.299,38.416L119.348,38.3471L119.395,38.278L119.442,38.2087L119.488,38.1392L119.533,38.0696L119.577,37.9998L119.621,37.9297L119.664,37.8597L119.706,37.7893L119.747,37.7187L119.788,37.6481L119.828,37.5773L119.867,37.5061L119.906,37.4348L119.943,37.3634L119.98,37.2917L120.016,37.2198L120.052,37.1476L120.086,37.0752L120.12,37.0027L120.153,36.93L120.186,36.8569L120.217,36.7837L120.248,36.7102L120.279,36.6363L120.308,36.5623L120.337,36.488L120.365,36.4134L120.392,36.3385L120.418,36.2635L120.444,36.188L120.469,36.1122L120.493,36.0362L120.517,35.9596L120.54,35.8829L120.561,35.8058L120.583,35.7283L120.603,35.6506L120.623,35.5725L120.642,35.4938L120.66,35.4147L120.678,35.3354L120.694,35.2557L120.71,35.1753L120.725,35.0946L120.74,35.0135L120.753,34.932L120.766,34.85L120.778,34.7674L120.789,34.6845L120.799,34.6008L120.809,34.5168L120.818,34.4323L120.826,34.3471L120.833,34.2616L120.839,34.1754L120.844,34.0885L120.849,34.0012L120.853,33.9134L120.856,33.8247L120.857,33.7355L120.858,33.6458L120.859,33.5555L120.858,33.4645L120.856,33.3727L120.854,33.2803L120.85,33.1873L120.846,33.0938L120.84,32.9994L120.834,32.9043L120.826,32.8085L120.818,32.712L120.809,32.615L120.798,32.517L120.787,32.4184L120.774,32.3191L120.761,32.2189L120.746,32.1182L120.731,32.0166L120.714,31.9142L120.696,31.8111L120.678,31.7072L120.658,31.6024L120.636,31.4971L120.614,31.3909L120.591,31.2838L120.566,31.1761L120.54,31.0674L120.513,30.9579L120.485,30.8479L120.456,30.7369L120.425,30.625L120.394,30.5124L120.361,30.399L120.326,30.2848L120.291,30.1696L120.254,30.0537L120.216,29.937L120.176,29.8196L120.135,29.7012L120.093,29.5819L120.05,29.462L120.005,29.3412L119.959,29.2195L119.911,29.097L119.862,28.9737L119.812,28.8495L119.76,28.7246L119.707,28.5988L119.653,28.4722L119.597,28.3448L119.539,28.2164L119.48,28.0874L119.42,27.9575L119.358,27.8267L119.295,27.6952L119.23,27.5628L119.163,27.4295L119.096,27.2955L119.026,27.1606L118.955,27.0249L118.883,26.8885L118.809,26.7512L118.733,26.613L118.656,26.4741L118.578,26.3343L118.497,26.1937L118.415,26.0523L118.332,25.9102L118.247,25.7672L118.16,25.6233L118.072,25.4788L117.982,25.3333L117.89,25.187L117.797,25.04L117.702,24.8922L117.605,24.7436L117.507,24.5942L117.407,24.4439L117.305,24.2929L117.202,24.1411L117.097,23.9885L116.99,23.835L116.881,23.6808L116.771,23.5259L116.659,23.3701L116.545,23.2135L116.43,23.0562L116.312,22.8981L116.193,22.7391L116.072,22.5795L115.95,22.419L115.825,22.2577L115.699,22.0957L115.571,21.9329L115.442,21.7693L115.31,21.6049L115.176,21.4398L115.041,21.2739L114.904,21.1072L114.765,20.9398L114.624,20.7715L114.482,20.6025L114.337,20.4327L114.191,20.2622L114.043,20.0909L113.892,19.9189L113.74,19.746L113.586,19.5725L113.431,19.3981L113.273,19.223L113.113,19.0471L112.952,18.8704L112.788,18.693L112.623,18.5149L112.455,18.3359L112.286,18.1563L112.115,17.9758L111.941,17.7946L111.766,17.6126L111.589,17.4299L111.41,17.2464L111.229,17.0622L111.046,16.8772L110.861,16.6915L110.675,16.5064L110.49,16.3233L110.306,16.1422L110.122,15.963L109.939,15.7859L109.758,15.6107L109.576,15.4374L109.396,15.2661L109.216,15.0968L109.037,14.9295L108.859,14.764L108.682,14.6005L108.505,14.4389L108.329,14.2793L108.154,14.1215L107.98,13.9657L107.806,13.8118L107.633,13.6597L107.461,13.5096L107.29,13.3613L107.119,13.2149L106.95,13.0704L106.781,12.9277L106.612,12.7869L106.445,12.648L106.278,12.5109L106.112,12.3756L105.947,12.2422L105.783,12.1106L105.619,11.9808L105.456,11.8528L105.294,11.7266L105.133,11.6022L104.973,11.4796L104.813,11.3588L104.654,11.2398L104.496,11.1225L104.339,11.007L104.182,10.8932L104.026,10.7812L103.871,10.6709L103.717,10.5623L103.564,10.4555L103.411,10.3504L103.259,10.2471L103.108,10.1453L102.958,10.0453L102.809,9.94703L102.66,9.85039L102.512,9.75544L102.365,9.66212L102.219,9.57045L102.073,9.48047L101.929,9.39213L101.785,9.30539L101.642,9.22026L101.5,9.13677L101.358,9.05488L101.218,8.97458L101.078,8.89588L100.939,8.81874L100.801,8.74318L100.664,8.66919L100.527,8.59674L100.391,8.52585L100.257,8.45647L100.123,8.38862L99.9893,8.32229L99.8569,8.25747L99.7253,8.19413L99.5946,8.13228L99.4647,8.07192L99.3356,8.01304L99.2073,7.95559L99.0799,7.89958L98.9533,7.84501L98.8275,7.79188L98.7025,7.74016L98.5783,7.68983L98.4551,7.64091L98.3326,7.59338L98.211,7.54722L98.0901,7.5024L97.9701,7.45894L97.851,7.41683L97.7326,7.37603L97.615,7.33655L97.4983,7.29839L97.3825,7.26152L97.2674,7.22592L97.1531,7.19161L97.0397,7.15855L96.9271,7.12672L96.8152,7.09614L96.7042,7.06679L96.5941,7.03865L96.4847,7.01171L96.376,6.98595L96.2682,6.96137L96.1613,6.93795L96.055,6.91568L95.9496,6.89456L95.8449,6.87457L95.741,6.85568L95.6379,6.83791L95.5356,6.82123L95.434,6.80562L95.3331,6.79109L95.233,6.77761L95.1337,6.76518L95.0351,6.75378L94.9372,6.7434L94.84,6.73404L94.7436,6.72567L94.6478,6.7183L94.5528,6.7119L94.4584,6.70646L94.3647,6.70199L94.2717,6.69846L94.1794,6.69587L94.0877,6.6942L93.9967,6.69345L93.9063,6.6936L93.8165,6.69466L93.7274,6.6966L93.6388,6.69941L93.5509,6.7031L93.4635,6.70766L93.3768,6.71306L93.2906,6.71931L93.2049,6.7264L93.1198,6.73432L93.0352,6.74307L92.9512,6.75263L92.8677,6.76301L92.7847,6.77419L92.7021,6.78617L92.6201,6.79894L92.5385,6.81251L92.4574,6.82685L92.3767,6.84198L92.2965,6.85788L92.2167,6.87456L92.1373,6.892L92.0583,6.91021L91.9798,6.92917L91.9016,6.9489L91.8237,6.96938L91.7463,6.99062L91.6692,7.01261L91.5924,7.03534L91.516,7.05883L91.4399,7.08307L91.3642,7.10805L91.2887,7.13378L91.2135,7.16023L91.1387,7.18745L91.0641,7.21541L90.9898,7.24411L90.9157,7.27356L90.842,7.30375L90.7685,7.33468L90.6952,7.36634L90.6222,7.39876L90.5494,7.43193L90.4768,7.46584L90.4045,7.50051L90.3324,7.5359L90.2605,7.57205L90.1887,7.60896L90.1173,7.64659L90.046,7.68498L89.9749,7.72414L89.904,7.76403L89.8333,7.80467L89.7628,7.8461L89.6924,7.88825L89.6223,7.93113L89.5523,7.97481L89.4825,8.01922L89.4129,8.06437L89.3434,8.11032L89.2741,8.15701L89.205,8.20445L89.1361,8.25261L89.0673,8.30157L88.9987,8.35127L88.9303,8.40171L88.862,8.45295L88.7939,8.50491L88.726,8.5576L88.6582,8.61106L88.5907,8.66527L88.5232,8.72025L88.456,8.77595L88.3889,8.83242L88.3219,8.88963L88.2552,8.94757L88.1886,9.00627L88.1222,9.06566L88.056,9.12584L87.9899,9.18675L87.9241,9.24837L87.8584,9.31076L87.7929,9.37385L87.7276,9.43765L87.6624,9.50219L87.5975,9.56744L87.5327,9.6334L87.4681,9.70012L87.4037,9.7675L87.3395,9.83562L87.2755,9.90441L87.215,9.97032L87.0847,10.1151L86.9585,10.2589L86.8332,10.4054L86.7087,10.5547L86.585,10.7065L86.4623,10.8609L86.3404,11.018L86.2194,11.1775L86.0994,11.3395L85.9803,11.5039L85.8621,11.6708L85.7449,11.8399L85.6287,12.0114L85.5135,12.1851L85.3992,12.361L85.286,12.5391L85.1738,12.7193L85.0626,12.9015L84.9525,13.0858L84.8435,13.272L84.7355,13.46L84.6285,13.65L84.5226,13.8417L84.4179,14.0352L84.3142,14.2305L84.2115,14.4273L84.1101,14.6257L84.0096,14.8256L83.9103,15.0271L83.8121,15.23L83.7151,15.4342L83.6191,15.6398L83.5243,15.8466L83.4306,16.0546L83.338,16.2639L83.2465,16.4742L83.1561,16.6856L83.0669,16.8979L82.9788,17.1112L82.8918,17.3254L82.806,17.5404L82.7212,17.7563L82.6376,17.9728L82.5551,18.19L82.4737,18.4079L82.3935,18.6263L82.3143,18.8452L82.2363,19.0646L82.1593,19.2844L82.0835,19.5045L82.0088,19.7249L81.9351,19.9456L81.8626,20.1664L81.7911,20.3875L81.7207,20.6086L81.6515,20.8297L81.5832,21.0508L81.5161,21.2718L81.45,21.4927L81.385,21.7134L81.321,21.9339L81.2581,22.1541L81.1962,22.3739L81.1354,22.5934L81.0756,22.8124L81.0168,23.0309L80.959,23.2489L80.9023,23.4662L80.8466,23.6829L80.7918,23.8989L80.7381,24.1142L80.6854,24.3286L80.6336,24.5422L80.5828,24.7548L80.5336,24.9642L80.4363,25.3869L80.3433,25.8026L80.2541,26.2135L80.1686,26.619L80.0867,27.0187L80.0083,27.4124L79.9335,27.7994L79.8621,28.1795L79.7941,28.5523L79.7294,28.9172L79.6679,29.2739L79.6097,29.6221L79.5546,29.9612L79.5025,30.2909L79.4534,30.6108L79.4073,30.9204L79.364,31.2194L79.3236,31.5073L79.2859,31.7838L79.2508,32.0485L79.2184,32.3009L79.1884,32.5406L79.161,32.7673L79.1359,32.9805L79.1135,33.1775L79.0744,33.5356L79.0442,33.8309L79.0219,34.0626L79.0072,34.226L78.9955,34.3656L76.0059,34.1162L73.8846,36.2375L64.7869,27.1398L52.2014,39.7254L63.4194,50.9454L18.2965,96.0682L10.8726,116.523Z" style="fill:#000;"/>
        </g>
        <path d="M64.7871,22.8975L47.9581,39.7255L87.6261,79.3925L104.454,62.5645L64.7871,22.8975Z" style="fill:#808080;fill-rule:nonzero;"/>
        <path d="M87.6261,83.6351L43.7154,39.7255L64.7872,18.6549L108.697,62.5645L87.6261,83.6351ZM87.6261,75.1499L100.211,62.5645L64.787,27.1401L52.2008,39.7255L87.6261,75.1499Z" style="fill:#000;"/>
    </g>
</svg>
