<?xml version="1.0" encoding="iso-8859-1"?>
<!-- Generator: Adobe Illustrator 16.0.3, SVG Export Plug-In . SVG Version: 6.00 Build 0)  -->
<!DOCTYPE svg PUBLIC "-//W3C//DTD SVG 1.1//EN" "http://www.w3.org/Graphics/SVG/1.1/DTD/svg11.dtd">
<svg version="1.1" xmlns="http://www.w3.org/2000/svg" xmlns:xlink="http://www.w3.org/1999/xlink" x="0px" y="0px" width="496px"
	 height="512px" viewBox="0 0 496 512" style="enable-background:new 0 0 496 512;" xml:space="preserve">
<g id="Shuffle">
	<path style="fill:none;stroke:#0000FF;stroke-width:30;stroke-linejoin:round;stroke-miterlimit:10;" d="M482,488.842
		c0,5.61-4.548,10.158-10.158,10.158H354.158c-5.61,0-10.158-4.548-10.158-10.158V371.158c0-5.61,4.548-10.158,10.158-10.158
		h117.684c5.61,0,10.158,4.548,10.158,10.158V488.842z"/>
	<path style="fill:none;stroke:#00FF00;stroke-width:30;stroke-linejoin:round;stroke-miterlimit:10;" d="M482,313.842
		c0,5.61-4.548,10.158-10.158,10.158H354.158c-5.61,0-10.158-4.548-10.158-10.158V196.158c0-5.61,4.548-10.158,10.158-10.158
		h117.684c5.61,0,10.158,4.548,10.158,10.158V313.842z"/>
	<path style="fill:none;stroke:#FF0000;stroke-width:30;stroke-linejoin:round;stroke-miterlimit:10;" d="M482,141.842
		c0,5.61-4.548,10.158-10.158,10.158H354.158c-5.61,0-10.158-4.548-10.158-10.158V24.158C344,18.548,348.548,14,354.158,14h117.684
		C477.452,14,482,18.548,482,24.158V141.842z"/>
	<path style="fill:#0000FF;stroke:#000000;stroke-linejoin:round;stroke-miterlimit:10;" d="M138.5,489.342
		c0,5.609-4.549,10.158-10.158,10.158H10.659c-5.61,0-10.159-4.549-10.159-10.158V371.658c0-5.609,4.548-10.158,10.159-10.158
		h117.683c5.609,0,10.158,4.549,10.158,10.158V489.342z"/>
	<path style="fill:#00FF00;stroke:#000000;stroke-linejoin:round;stroke-miterlimit:10;" d="M138.5,314.342
		c0,5.609-4.549,10.158-10.158,10.158H10.659c-5.61,0-10.159-4.549-10.159-10.158V196.658c0-5.609,4.548-10.158,10.159-10.158
		h117.683c5.609,0,10.158,4.549,10.158,10.158V314.342z"/>
	<path style="fill:#FF0000;stroke:#000000;stroke-linejoin:round;stroke-miterlimit:10;" d="M138.5,142.341
		c0,5.61-4.548,10.159-10.159,10.159H10.659c-5.61,0-10.159-4.548-10.159-10.159V24.659c0-5.61,4.548-10.159,10.159-10.159h117.683
		c5.61,0,10.159,4.548,10.159,10.159V142.341z"/>
</g>
<g id="Layer_1">
</g>
</svg>
