<?xml version="1.0" standalone="no"?>
<!DOCTYPE svg PUBLIC "-//W3C//DTD SVG 1.1//EN" "http://www.w3.org/Graphics/SVG/1.1/DTD/svg11.dtd">
<svg width="100%" height="100%" viewBox="0 0 128 128" version="1.1" xmlns="http://www.w3.org/2000/svg" xmlns:xlink="http://www.w3.org/1999/xlink" xml:space="preserve" style="fill-rule:evenodd;clip-rule:evenodd;stroke-linejoin:round;stroke-miterlimit:10;">
    <g id="Ch Shuffle">
        <path d="M39.5,122.96C39.5,124.362 38.363,125.5 36.96,125.5L7.04,125.5C5.637,125.5 4.5,124.362 4.5,122.96L4.5,93.0394C4.5,91.6374 5.637,90.5004 7.04,90.5004L36.96,90.5004C38.363,90.5004 39.5,91.6374 39.5,93.0394L39.5,122.96Z" style="fill:#3d3d99;fill-rule:nonzero;"/>
        <path d="M39.5,122.96C39.5,124.362 38.363,125.5 36.96,125.5L7.04,125.5C5.637,125.5 4.5,124.362 4.5,122.96L4.5,93.0394C4.5,91.6374 5.637,90.5004 7.04,90.5004L36.96,90.5004C38.363,90.5004 39.5,91.6374 39.5,93.0394L39.5,122.96Z" style="fill:none;stroke-width:1px;stroke:#000;"/>
        <path d="M39.5,78.9604C39.5,80.3624 38.363,81.5004 36.96,81.5004L7.04,81.5004C5.637,81.5004 4.5,80.3624 4.5,78.9604L4.5,49.0394C4.5,47.6374 5.637,46.5004 7.04,46.5004L36.96,46.5004C38.363,46.5004 39.5,47.6374 39.5,49.0394L39.5,78.9604Z" style="fill:#3d993d;fill-rule:nonzero;"/>
        <path d="M39.5,78.9604C39.5,80.3624 38.363,81.5004 36.96,81.5004L7.04,81.5004C5.637,81.5004 4.5,80.3624 4.5,78.9604L4.5,49.0394C4.5,47.6374 5.637,46.5004 7.04,46.5004L36.96,46.5004C38.363,46.5004 39.5,47.6374 39.5,49.0394L39.5,78.9604Z" style="fill:none;stroke-width:1px;stroke:#000;"/>
        <path d="M39.5,35.9604C39.5,37.3624 38.363,38.5004 36.96,38.5004L7.04,38.5004C5.637,38.5004 4.5,37.3624 4.5,35.9604L4.5,6.0394C4.5,4.6374 5.637,3.5004 7.04,3.5004L36.96,3.5004C38.363,3.5004 39.5,4.6374 39.5,6.0394L39.5,35.9604Z" style="fill:#993d3d;fill-rule:nonzero;"/>
        <path d="M39.5,35.9604C39.5,37.3624 38.363,38.5004 36.96,38.5004L7.04,38.5004C5.637,38.5004 4.5,37.3624 4.5,35.9604L4.5,6.0394C4.5,4.6374 5.637,3.5004 7.04,3.5004L36.96,3.5004C38.363,3.5004 39.5,4.6374 39.5,6.0394L39.5,35.9604Z" style="fill:none;stroke-width:1px;stroke:#000;"/>
        <path d="M120.96,91L91.0394,91C89.6374,91 88.0004,91.637 88.0004,93.04L88.0004,122.96C88.0004,124.363 89.6374,126 91.0394,126L120.96,126C122.362,126 123,124.363 123,122.96L123,93.04C123,91.637 122.362,91 120.96,91M117,120L94.0004,120L94.0004,97L117,97L117,120ZM117,97" style="fill:#3d3d99;fill-rule:nonzero;"/>
        <path d="M120.96,47L91.0394,47C89.6374,47 88.0004,47.637 88.0004,49.04L88.0004,78.96C88.0004,80.363 89.6374,82 91.0394,82L120.96,82C122.362,82 123,80.363 123,78.96L123,49.04C123,47.637 122.362,47 120.96,47M117,76L94.0004,76L94.0004,53L117,53L117,76ZM117,53" style="fill:#3d993d;fill-rule:nonzero;"/>
        <path d="M120.96,4L91.0394,4C89.6374,4 88.0004,4.637 88.0004,6.04L88.0004,35.96C88.0004,37.363 89.6374,39 91.0394,39L120.96,39C122.362,39 123,37.363 123,35.96L123,6.04C123,4.637 122.362,4 120.96,4M117,33L94.0004,33L94.0004,10L117,10L117,33ZM117,10" style="fill:#993d3d;fill-rule:nonzero;"/>
        <path d="M53.9961,48.4209L75.9121,63.9529L53.9031,79.5519L53.9961,48.4209Z" style="fill:#666;fill-rule:nonzero;"/>
        <path d="M53.9961,5.4209L75.9121,20.9529L53.9031,36.5519L53.9961,5.4209Z" style="fill:#666;fill-rule:nonzero;"/>
        <path d="M53.9961,92.7632L75.9121,108.295L53.9031,123.894L53.9961,92.7632Z" style="fill:#666;fill-rule:nonzero;"/>
    </g>
</svg>
