<?xml version="1.0" standalone="no"?>
<!DOCTYPE svg PUBLIC "-//W3C//DTD SVG 1.1//EN" "http://www.w3.org/Graphics/SVG/1.1/DTD/svg11.dtd">
<svg width="100%" height="100%" viewBox="0 0 128 128" version="1.1" xmlns="http://www.w3.org/2000/svg" xmlns:xlink="http://www.w3.org/1999/xlink" xml:space="preserve" style="fill-rule:evenodd;clip-rule:evenodd;stroke-linejoin:round;stroke-miterlimit:1.41421;">
    <g id="Me Switch">
        <circle cx="24.2519" cy="42.9781" r="6.65402" style="fill:#666;"/>
        <circle cx="103.413" cy="42.9781" r="6.65402" style="fill:#666;"/>
        <circle cx="63.974" cy="24.3424" r="6.65402" style="fill:#666;"/>
        <path d="M64,116.801C62.2649,116.795 60.5329,116.681 58.8142,116.441C55.4082,115.964 52.0716,115.01 48.9292,113.612C45.2489,111.976 41.8426,109.734 38.8783,107.007C35.8125,104.188 33.2248,100.853 31.2586,97.181C29.5758,94.038 28.3517,90.6527 27.637,87.1598C26.8176,83.1557 26.6656,79.0157 27.1809,74.9614C27.6628,71.1707 28.7353,67.4595 30.352,63.997C32.2118,60.0137 34.7853,56.3708 37.9121,53.2811C41.2013,50.0309 45.095,47.4014 49.3432,45.5739C51.6518,44.5807 54.0617,43.8245 56.5239,43.3207C58.8258,42.8497 61.172,42.5994 63.5213,42.5697C65.8807,42.5398 68.2427,42.7313 70.5656,43.1462C73.0469,43.5894 75.482,44.2874 77.8211,45.2264C82.1175,46.9512 86.078,49.4888 89.4475,52.6632C92.6443,55.6749 95.3022,59.2518 97.2569,63.1853C98.9525,66.5973 100.114,70.2697 100.69,74.0361C101.296,78.0018 101.258,82.0669 100.578,86.0205C99.9708,89.5456 98.8487,92.9788 97.2569,96.1821C95.4014,99.916 92.9123,103.329 89.9292,106.242C86.9973,109.105 83.5933,111.479 79.8907,113.236C76.8626,114.672 73.6397,115.693 70.3368,116.261C69.1827,116.46 68.0192,116.604 66.8515,116.693C66.2205,116.741 65.5886,116.771 64.956,116.789C64.6373,116.796 64.3188,116.8 64,116.801ZM60,50.8388C59.6125,50.8919 59.2261,50.9529 58.8411,51.0216C56.898,51.3687 54.991,51.9152 53.1593,52.6506C49.7884,54.0037 46.6818,55.9957 44.0383,58.4862C41.486,60.8907 39.3708,63.7538 37.8293,66.9037C36.5165,69.5862 35.6241,72.4703 35.1916,75.4254C34.7176,78.6643 34.7881,81.985 35.4041,85.2001C35.9302,87.9461 36.8572,90.6127 38.1469,93.0934C39.629,95.9441 41.586,98.544 43.9114,100.761C46.1973,102.94 48.8358,104.747 51.6978,106.083C54.078,107.194 56.6087,107.978 59.2002,108.408C60.6008,108.64 62.0154,108.764 63.4345,108.795C63.623,108.798 63.8114,108.8 64,108.801C65.4252,108.796 66.8478,108.699 68.2583,108.492C70.8633,108.111 73.414,107.373 75.8196,106.303C78.7074,105.018 81.3798,103.259 83.7058,101.12C86.1127,98.9055 88.145,96.2882 89.6887,93.4049C91.0067,90.9432 91.9656,88.2918 92.5254,85.556C93.1815,82.3499 93.2922,79.0318 92.8592,75.7882C92.4711,72.882 91.6397,70.0383 90.3992,67.3816C88.9395,64.2552 86.9189,61.3966 84.4649,58.9716C81.8838,56.4212 78.8289,54.3568 75.4953,52.9227C73.6875,52.145 71.8004,51.5528 69.8724,51.1583C69.2519,51.0314 68.6273,50.9249 68,50.8389L68,70.3652C65.3333,70.3652 62.6667,70.3652 60,70.3652L60,50.8388Z" style="fill:#c8c8c8;"/>
    </g>
</svg>
