<?xml version="1.0" standalone="no"?>
<!DOCTYPE svg PUBLIC "-//W3C//DTD SVG 1.1//EN" "http://www.w3.org/Graphics/SVG/1.1/DTD/svg11.dtd">
<svg width="100%" height="100%" viewBox="0 0 128 128" version="1.1" xmlns="http://www.w3.org/2000/svg" xmlns:xlink="http://www.w3.org/1999/xlink" xml:space="preserve" style="fill-rule:evenodd;clip-rule:evenodd;stroke-linejoin:round;stroke-miterlimit:1.41421;">
    <g id="Tr AdjustROD">
        <path d="M94.2966,78.809L94.2966,95.191L77.7034,95.191L94.2966,78.809Z" style="fill:#999;"/>
        <path d="M67.9584,99.191L98.2966,69.2389L98.2966,99.191L67.9584,99.191ZM87.4484,91.191L90.2966,91.191L90.2966,88.379L87.4484,91.191Z" style="fill:#999;"/>
        <rect x="105.674" y="72.6996" width="8" height="9.62648" style="fill:#999;"/>
        <rect x="14.3261" y="72.6996" width="8" height="9.62648" style="fill:#999;"/>
        <rect x="105.674" y="45.921" width="8" height="9.62648" style="fill:#999;"/>
        <rect x="14.3261" y="45.921" width="8" height="9.62648" style="fill:#999;"/>
        <path d="M45.7974,113.674L45.7974,105.674L55.4239,105.674L55.4239,113.674L45.7974,113.674ZM72.5761,113.674L72.5761,105.674L82.2026,105.674L82.2026,113.674L72.5761,113.674ZM99.3547,113.674L99.3547,105.674L105.674,105.674L105.674,99.4783L113.674,99.4783L113.674,113.674L99.3547,113.674ZM28.6453,113.674L14.3261,113.674L14.3261,99.4783L22.3261,99.4783L22.3261,105.674L28.6453,105.674L28.6453,113.674Z" style="fill:#999;"/>
        <path d="M45.7974,14.4542L45.7974,22.4542L55.4239,22.4542L55.4239,14.4542L45.7974,14.4542ZM72.5761,14.4542L72.5761,22.4542L82.2026,22.4542L82.2026,14.4542L72.5761,14.4542ZM99.3547,14.4542L99.3547,22.4542L105.674,22.4542L105.674,28.6498L113.674,28.6498L113.674,14.4542L99.3547,14.4542ZM28.6453,14.4542L14.3261,14.4542L14.3261,28.6498L22.3261,28.6498L22.3261,22.4542L28.6453,22.4542L28.6453,14.4542Z" style="fill:#999;"/>
    </g>
</svg>
