<?xml version="1.0" standalone="no"?>
<!DOCTYPE svg PUBLIC "-//W3C//DTD SVG 1.1//EN" "http://www.w3.org/Graphics/SVG/1.1/DTD/svg11.dtd">
<svg width="100%" height="100%" viewBox="0 0 128 128" version="1.1" xmlns="http://www.w3.org/2000/svg" xmlns:xlink="http://www.w3.org/1999/xlink" xml:space="preserve" style="fill-rule:evenodd;clip-rule:evenodd;stroke-linejoin:round;stroke-miterlimit:1.41421;">
    <g id="Ti FrameHold">
        <g>
            <rect x="40.673" y="29.873" width="15.2165" height="68.254" style="fill:#e6e6e6;"/>
            <rect x="72.1104" y="29.873" width="15.2165" height="68.254" style="fill:#e6e6e6;"/>
        </g>
        <path d="M64.0435,68.9861L63.786,68.9817L63.5291,68.964L63.2735,68.9332L63.0198,68.8892L62.7687,68.8322L62.5209,68.7624L62.277,68.6799L62.0377,68.5849L61.8035,68.4778L61.5752,68.3587L61.3534,68.2281L61.1385,68.0862L60.9312,67.9334L60.7321,67.7702L60.5417,67.5969L60.3604,67.4141L60.1888,67.2221L60.0272,67.0216L59.8762,66.8131L59.7362,66.597L59.6075,66.374L59.4904,66.1447L59.3852,65.9097L59.2923,65.6695L59.2119,65.4249L59.1442,65.1765L59.0894,64.9249L59.0476,64.6709L59.0189,64.415L59.0034,64.158L59.0012,63.9005L59.0123,63.6433L59.0366,63.3869L59.074,63.1322L59.1245,62.8797L59.1879,62.6302L59.2641,62.3842L59.3529,62.1425L59.4539,61.9057L59.5671,61.6744L59.692,61.4493L59.8283,61.2308L59.9757,61.0197L60.1337,60.8164L60.302,60.6216L60.4801,60.4356L60.6676,60.2591L60.8639,60.0925L61.0685,59.9362L61.2809,59.7906L61.5005,59.6562L95.1485,40.2292L95.3747,40.1062L95.6069,39.9951L95.8446,39.896L96.0871,39.8094L96.3337,39.7353L96.5837,39.674L96.8366,39.6257L97.0917,39.5904L97.3482,39.5683L97.6055,39.5595L97.863,39.5639L98.1199,39.5816L98.3755,39.6124L98.6292,39.6564L98.8803,39.7134L99.1281,39.7832L99.372,39.8657L99.6113,39.9607L99.8455,40.0678L100.074,40.1869L100.296,40.3175L100.51,40.4594L100.718,40.6122L100.917,40.7754L101.107,40.9487L101.289,41.1315L101.46,41.3235L101.622,41.524L101.773,41.7325L101.913,41.9486L102.042,42.1716L102.159,42.4009L102.264,42.6359L102.357,42.8761L102.437,43.1207L102.505,43.3691L102.56,43.6207L102.601,43.8747L102.63,44.1306L102.646,44.3876L102.648,44.6451L102.637,44.9023L102.612,45.1587L102.575,45.4134L102.525,45.6659L102.461,45.9154L102.385,46.1614L102.296,46.4031L102.195,46.6399L102.082,46.8712L101.957,47.0963L101.821,47.3148L101.673,47.5259L101.515,47.7292L101.347,47.924L101.169,48.11L100.981,48.2865L100.785,48.4531L100.581,48.6094L100.368,48.755L100.149,48.8894L66.5005,68.3164L66.2743,68.4394L66.0421,68.5505L65.8044,68.6496L65.5619,68.7362L65.3153,68.8103L65.0653,68.8716L64.8124,68.9199L64.5573,68.9552L64.3008,68.9773L64.0435,68.9861Z" style="fill:#808080;"/>
        <path d="M64.0346,68.9862L63.8306,68.9834L63.6269,68.9723L63.4238,68.9529L63.2217,68.9253L63.0209,68.8894L62.8218,68.8454L62.6245,68.7932L62.4296,68.7331L62.2373,68.6651L62.0479,68.5893L61.8618,68.5058L61.6792,68.4148L61.5005,68.3165L40.4175,56.1445L40.243,56.0389L40.0729,55.9263L39.9076,55.8068L39.7472,55.6807L39.5921,55.5482L39.4426,55.4095L39.2989,55.2647L39.1611,55.1143L39.0297,54.9583L38.9047,54.7971L38.7863,54.6309L38.6749,54.4601L38.5705,54.2848L38.4733,54.1055L38.3836,53.9223L38.3014,53.7356L38.2269,53.5457L38.1601,53.353L38.1013,53.1576L38.0506,52.9601L38.0079,52.7606L37.9734,52.5596L37.9471,52.3573L37.9291,52.1541L37.9194,51.9503L37.918,51.7464L37.9249,51.5425L37.9401,51.3391L37.9637,51.1364L37.9954,50.935L38.0354,50.7349L38.0835,50.5367L38.1396,50.3406L38.2037,50.1469L38.2756,49.956L38.3553,49.7682L38.4426,49.5839L38.5373,49.4032L38.6392,49.2265L38.7484,49.0542L38.8644,48.8864L38.9872,48.7235L39.1165,48.5658L39.2522,48.4135L39.394,48.2668L39.5416,48.126L39.6949,47.9914L39.8535,47.8631L40.0172,47.7415L40.1857,47.6265L40.3588,47.5186L40.5361,47.4178L40.7175,47.3243L40.9024,47.2383L41.0908,47.16L41.2821,47.0893L41.4762,47.0265L41.6727,46.9717L41.8712,46.925L42.0715,46.8864L42.2733,46.856L42.476,46.8338L42.6795,46.82L42.8835,46.8144L43.0874,46.8172L43.2911,46.8283L43.4942,46.8477L43.6963,46.8753L43.8971,46.9112L44.0962,46.9552L44.2935,47.0074L44.4884,47.0675L44.6807,47.1355L44.8701,47.2113L45.0562,47.2948L45.2388,47.3858L45.4175,47.4841L66.5005,59.6561L66.675,59.7617L66.8451,59.8743L67.0104,59.9938L67.1708,60.1199L67.3259,60.2524L67.4754,60.3911L67.6191,60.5359L67.7569,60.6863L67.8883,60.8423L68.0133,61.0035L68.1317,61.1697L68.2431,61.3405L68.3475,61.5158L68.4447,61.6951L68.5344,61.8783L68.6166,62.065L68.6911,62.2549L68.7579,62.4476L68.8167,62.643L68.8675,62.8405L68.9101,63.04L68.9446,63.241L68.9709,63.4433L68.9889,63.6465L68.9987,63.8503L69,64.0542L68.9931,64.2581L68.9779,64.4615L68.9543,64.6642L68.9226,64.8657L68.8826,65.0657L68.8345,65.2639L68.7784,65.46L68.7143,65.6537L68.6424,65.8446L68.5627,66.0324L68.4754,66.2167L68.3807,66.3974L68.2788,66.5741L68.1696,66.7464L68.0536,66.9142L67.9308,67.0771L67.8015,67.2348L67.6658,67.3871L67.524,67.5338L67.3764,67.6746L67.2232,67.8092L67.0645,67.9375L66.9008,68.0592L66.7323,68.1741L66.5592,68.282L66.3819,68.3828L66.2005,68.4763L66.0156,68.5623L65.8273,68.6407L65.6359,68.7113L65.4418,68.7741L65.2453,68.8289L65.0468,68.8756L64.8465,68.9142L64.6448,68.9446L64.442,68.9668L64.2385,68.9806L64.0346,68.9862Z" style="fill:#808080;"/>
        <path d="M70.1215,1.8478C66.0503,1.44683 61.9497,1.44683 57.8785,1.8478L58.9019,12.2379C62.2924,11.904 65.7076,11.904 69.0981,12.2379L70.1215,1.8478ZM38.2252,7.11389C34.4991,8.8022 30.9478,10.8525 27.6226,13.2353L33.7039,21.7218C36.4732,19.7373 39.4308,18.0298 42.5341,16.6237L38.2252,7.11389ZM13.2353,27.6226C10.8525,30.9478 8.8022,34.4991 7.11389,38.2252L16.6237,42.5341C18.0298,39.4308 19.7373,36.4732 21.7218,33.7039L13.2353,27.6226ZM1.8478,57.8785C1.44683,61.9497 1.44683,66.0503 1.8478,70.1215L12.2379,69.0981C11.904,65.7076 11.904,62.2924 12.2379,58.9019L1.8478,57.8785ZM7.11389,89.7748C8.8022,93.5009 10.8525,97.0522 13.2353,100.377L21.7218,94.2961C19.7373,91.5268 18.0298,88.5692 16.6237,85.4659L7.11389,89.7748ZM27.6226,114.765C30.9478,117.147 34.4991,119.198 38.2252,120.886L42.5341,111.376C39.4308,109.97 36.4732,108.263 33.7039,106.278L27.6226,114.765ZM57.8785,126.152C61.9497,126.553 66.0503,126.553 70.1215,126.152L69.0981,115.762C65.7076,116.096 62.2924,116.096 58.9019,115.762L57.8785,126.152ZM89.7748,120.886C93.5009,119.198 97.0522,117.147 100.377,114.765L94.2961,106.278C91.5268,108.263 88.5692,109.97 85.4659,111.376L89.7748,120.886ZM114.765,100.377C117.147,97.0522 119.198,93.5009 120.886,89.7748L111.376,85.4659C109.97,88.5692 108.263,91.5268 106.278,94.2961L114.765,100.377ZM126.152,70.1215C126.553,66.0503 126.553,61.9497 126.152,57.8785L115.762,58.9019C116.096,62.2924 116.096,65.7076 115.762,69.0981L126.152,70.1215ZM120.886,38.2252C119.198,34.4991 117.147,30.9478 114.765,27.6226L106.278,33.7039C108.263,36.4732 109.97,39.4308 111.376,42.5341L120.886,38.2252ZM100.377,13.2353C97.0522,10.8525 93.5009,8.8022 89.7748,7.11389L85.4659,16.6237C88.5692,18.0298 91.5268,19.7373 94.2961,21.7218L100.377,13.2353Z" style="fill:#808080;"/>
    </g>
</svg>
