<?xml version="1.0" standalone="no"?>
<!DOCTYPE svg PUBLIC "-//W3C//DTD SVG 1.1//EN" "http://www.w3.org/Graphics/SVG/1.1/DTD/svg11.dtd">
<svg width="100%" height="100%" viewBox="0 0 128 128" version="1.1" xmlns="http://www.w3.org/2000/svg" xmlns:xlink="http://www.w3.org/1999/xlink" xml:space="preserve" style="fill-rule:evenodd;clip-rule:evenodd;stroke-linejoin:round;stroke-miterlimit:1.41421;">
    <g id="Co Grade">
        <path d="M86.8169,73.9336L119.078,88.3196C121.386,83.1776 122.985,77.6496 123.755,71.8596L88.6339,67.2766" style="fill:#4e4eb3;fill-rule:nonzero;"/>
        <path d="M118.59,38.4551L86.5348,53.7541C86.5278,53.7401 86.4998,53.7261 86.4928,53.7111C86.4498,53.6221 86.4228,53.6221 86.4658,53.7111C87.8938,56.6871 88.6728,61.2041 88.5398,60.3601L123.601,54.8631C122.72,49.0781 121.007,43.5681 118.59,38.4551" style="fill:#874eb3;fill-rule:nonzero;"/>
        <path d="M77.4063,43.5669C77.3753,43.5469 77.3443,43.5289 77.3123,43.5099C79.3653,44.7669 81.2153,46.3199 82.8043,48.1089C82.7733,48.0729 82.7413,48.0379 82.7103,48.0039L109.164,24.2269C105.38,19.9819 100.998,16.2819 96.1503,13.2579L77.4063,43.5669Z" style="fill:#b34ea5;fill-rule:nonzero;"/>
        <path d="M40.6069,67.7378C40.4299,66.5598 40.3369,65.3538 40.3369,64.1268C40.3369,62.9478 40.4239,61.7908 40.5869,60.6568C40.5819,60.6958 40.5739,60.7328 40.5689,60.7708L5.4929,55.8828C5.1389,58.5098 4.9529,61.1898 4.9529,63.9138C4.9529,66.9588 5.1829,69.9488 5.6219,72.8708L40.5989,67.6878C40.6009,67.7048 40.6049,67.7208 40.6069,67.7378" style="fill:#a0b34e;fill-rule:nonzero;"/>
        <path d="M42.2529,54.1304C42.2519,54.1334 41.9999,54.1374 41.9999,54.1404L41.9999,54.1424C41.9999,54.1464 42.2449,54.1504 42.2429,54.1544C43.2139,52.0204 44.6109,50.0514 46.1319,48.3034C46.1279,48.3064 46.1869,48.3114 46.1829,48.3154L19.3609,24.9984C15.6509,29.3054 12.4369,34.1474 10.0679,39.3934L42.2529,54.1304Z" style="fill:#b38c4e;fill-rule:nonzero;"/>
        <path d="M57.9688,87.5752C57.7978,87.5102 54.5878,86.5412 51.6038,84.6512L32.8408,114.418C37.6108,117.425 42.8348,119.778 48.3898,121.344L57.9688,87.5752Z" style="fill:#4eb37e;fill-rule:nonzero;"/>
        <path d="M46.3828,80.0952C46.4138,80.1302 46.4458,80.1642 46.4778,80.1992C44.8908,78.4242 43.5628,76.4142 42.5518,74.2282C42.5648,74.2562 42.5758,74.2842 42.5888,74.3112L10.5888,89.2502C13.0248,94.4362 16.1858,99.2142 19.9408,103.454L46.3828,80.0952Z" style="fill:#5fb34e;fill-rule:nonzero;"/>
        <path d="M51.4756,43.7881C51.4606,43.7971 51.4476,43.8081 51.4326,43.8171C51.1236,44.0171 51.1236,44.0301 51.4326,43.8311C53.3706,42.5801 55.4976,41.6121 57.7626,40.9501L57.7686,40.9981C58.1196,40.8961 58.1196,40.8411 57.7686,40.9431L57.7476,40.9221L47.7366,6.6751C42.1836,8.3101 36.9676,10.7291 32.2176,13.8081L51.4756,43.7881Z" style="fill:#b3684e;fill-rule:nonzero;"/>
        <path d="M64,39.9448C65,39.9448 64.328,39.9438 64.366,39.9438C66.63,39.9438 68.945,40.2528 71.023,40.8298C70.995,40.8218 71.03,40.8128 71.002,40.8048L80.454,6.3858C75.401,4.9958 69.847,4.2488 64.352,4.2488C64.313,4.2488 65,4.2508 64,4.2508L64,39.9448Z" style="fill:#b34e6d;fill-rule:nonzero;"/>
        <path d="M71.6777,87.3213C69.4437,87.9993 64.8287,88.4183 64.8287,88.4183L65.1197,123.572C70.9327,123.525 76.5477,122.645 81.8507,121.048L71.6777,87.3213Z" style="fill:#4eb3b3;fill-rule:nonzero;"/>
        <path d="M83.1235,79.7812L83.1335,79.7692C83.1385,79.7632 83.1445,79.7572 83.1495,79.7512C83.1545,79.7452 83.1585,79.7402 83.1635,79.7342C83.1715,79.7242 83.1805,79.7142 83.1895,79.7042C83.1935,79.6982 83.1985,79.6932 83.2025,79.6882C83.2075,79.6812 83.2145,79.6742 83.2205,79.6672C83.2245,79.6622 83.2285,79.6572 83.2325,79.6522C83.2425,79.6412 83.2505,79.6312 83.2595,79.6202C83.2635,79.6152 83.2675,79.6112 83.2705,79.6062C83.2785,79.5982 83.2835,79.5922 83.2905,79.5832C83.2945,79.5792 83.2985,79.5742 83.3025,79.5702C83.3105,79.5582 83.3205,79.5472 83.3295,79.5362C83.3325,79.5322 83.3355,79.5292 83.3385,79.5252C83.3425,79.5212 83.3455,79.5162 83.3495,79.5122C81.7435,81.4502 79.8395,83.1352 77.7085,84.4962C77.7145,84.4922 77.7205,84.4892 77.7265,84.4852C77.7305,84.4832 77.7335,84.4802 77.7375,84.4782C77.7465,84.4722 77.7545,84.4672 77.7635,84.4622C77.7665,84.4602 77.7695,84.4582 77.7725,84.4552L77.8165,84.4272C77.8205,84.4252 77.8255,84.4212 77.8305,84.4182C77.8375,84.4132 77.8455,84.4082 77.8525,84.4042C77.8585,84.4002 77.8635,84.3972 77.8685,84.3932C77.8805,84.3852 77.8935,84.3782 77.9045,84.3702C77.9105,84.3662 77.9155,84.3632 77.9215,84.3592C77.9255,84.3562 77.9285,84.3542 77.9325,84.3522L97.2495,113.868C102.002,110.757 106.283,106.988 109.963,102.688L83.1235,79.7812Z" style="fill:#4e88b3;fill-rule:nonzero;"/>
    </g>
</svg>
