<?xml version="1.0" encoding="iso-8859-1"?>
<!-- Generator: Adobe Illustrator 16.0.3, SVG Export Plug-In . SVG Version: 6.00 Build 0)  -->
<!DOCTYPE svg PUBLIC "-//W3C//DTD SVG 1.1//EN" "http://www.w3.org/Graphics/SVG/1.1/DTD/svg11.dtd">
<svg version="1.1" xmlns="http://www.w3.org/2000/svg" xmlns:xlink="http://www.w3.org/1999/xlink" x="0px" y="0px" width="512px"
	 height="492.111px" viewBox="0 0 512 492.111" style="enable-background:new 0 0 512 492.111;" xml:space="preserve">
<g id="premult">
	<g>
		<path style="fill:#B3B3B3;" d="M435.305,302.683c11.927-32.55,20.963-64.078,27.098-94.586h47.038
			c-9.036,38.857-27.354,85.044-54.963,138.556l5.113,12.271c2.212,4.946,7.497,16.277,15.85,34
			c5.112,10.909,11.075,23.863,17.895,38.857c10.226,23.352,18.573,41.33,25.053,53.94h-53.685c-2.045-4.258-3.239-6.814-3.579-7.67
			l-11.504-26.586l-10.48-24.542l-8.437-19.684l-4.09-9.459c-15.683,34.767-31.572,59.181-47.677,73.241
			c-16.105,14.06-36.173,21.09-60.203,21.09c-31.021,0-55.857-12.143-74.519-36.429s-27.993-56.624-27.993-97.015
			c0-47.206,10.693-85.168,32.083-113.888c21.387-28.715,49.722-43.075,85-43.075c23.519,0,42.264,6.902,56.24,20.707
			C403.517,236.216,418.771,262.975,435.305,302.683z M409.485,356.878l-12.526-28.376c-15.339-35.105-27.737-58.669-37.195-70.684
			c-9.459-12.016-20.156-18.023-32.083-18.023c-16.872,0-30.721,10.398-41.542,31.188c-10.823,20.794-16.232,47.293-16.232,79.504
			c0,31.188,5.068,56.285,15.21,75.286c10.139,19.006,23.559,28.503,40.264,28.503c14.482,0,27.776-6.985,39.88-20.962
			C377.358,419.343,392.102,393.862,409.485,356.878z"/>
	</g>
	<g>
		<path style="fill:#FFFFFF;" d="M0,235.623l90.723-90.723L0,54.176L54.176,0l90.723,90.723L235.623,0l54.176,54.176l-90.723,90.723
			l90.723,90.723l-54.176,54.176l-90.723-90.724l-90.723,90.724L0,235.623z"/>
	</g>
</g>
<g id="Layer_1">
</g>
</svg>
