<?xml version="1.0" encoding="iso-8859-1"?>
<!-- Generator: Adobe Illustrator 16.0.3, SVG Export Plug-In . SVG Version: 6.00 Build 0)  -->
<!DOCTYPE svg PUBLIC "-//W3C//DTD SVG 1.1//EN" "http://www.w3.org/Graphics/SVG/1.1/DTD/svg11.dtd">
<svg version="1.1" xmlns="http://www.w3.org/2000/svg" xmlns:xlink="http://www.w3.org/1999/xlink" x="0px" y="0px"
	 width="78.711px" height="78.564px" viewBox="0 0 78.711 78.564" style="enable-background:new 0 0 78.711 78.564;"
	 xml:space="preserve">
<g id="Ot_Noop">
	<g>
		<path style="fill:#B3B3B3;" d="M63.135,8.301L71.289,0l6.543,6.494l-8.057,8.252c5.957,7.422,8.936,15.739,8.936,24.951
			c0,10.678-3.857,19.824-11.572,27.441S50.162,78.564,39.355,78.564c-9.017,0-17.334-2.881-24.951-8.643l-8.105,8.057l-6.25-6.396
			l7.861-8.105C2.637,56.445,0,48.552,0,39.795c0-11.263,3.987-20.687,11.963-28.271C19.775,4.102,29.004,0.391,39.648,0.391
			C48.111,0.391,55.94,3.027,63.135,8.301z M55.176,15.82c-4.721-3.157-9.912-4.736-15.576-4.736
			c-8.041,0-14.746,2.751-20.117,8.252c-5.339,5.534-8.008,12.402-8.008,20.605c0,5.371,1.579,10.612,4.736,15.723L55.176,15.82z
			 M61.719,22.168L22.51,62.158c5.501,3.809,11.165,5.713,16.992,5.713c7.682,0,14.225-2.75,19.629-8.252
			c5.403-5.501,8.105-12.207,8.105-20.117C67.236,33.285,65.396,27.507,61.719,22.168z"/>
	</g>
</g>
<g id="Layer_1">
</g>
</svg>
