<?xml version="1.0" encoding="iso-8859-1"?>
<!-- Generator: Adobe Illustrator 16.0.3, SVG Export Plug-In . SVG Version: 6.00 Build 0)  -->
<!DOCTYPE svg PUBLIC "-//W3C//DTD SVG 1.1//EN" "http://www.w3.org/Graphics/SVG/1.1/DTD/svg11.dtd">
<svg version="1.1" xmlns="http://www.w3.org/2000/svg" xmlns:xlink="http://www.w3.org/1999/xlink" x="0px" y="0px"
	 width="510.553px" height="511.134px" viewBox="0 0 510.553 511.134" style="enable-background:new 0 0 510.553 511.134;"
	 xml:space="preserve">
<g id="Transform">
	<g>
		<path style="fill:#999999;" d="M255.441,160.579c52.304,0,94.856,42.552,94.856,94.855c0,52.302-42.552,94.853-94.856,94.853
			c-52.303,0-94.854-42.551-94.854-94.853C160.587,203.131,203.138,160.579,255.441,160.579 M255.441,120.579
			c-74.478,0-134.854,60.376-134.854,134.855c0,74.478,60.376,134.853,134.854,134.853c74.479,0,134.856-60.375,134.856-134.853
			C390.297,180.955,329.92,120.579,255.441,120.579L255.441,120.579z"/>
	</g>
	<path style="fill:#E6E6E6;stroke:#E6E6E6;stroke-width:20;stroke-miterlimit:10;" d="M84,211.407v88.053l-66.215-44.025L84,211.407
		z M62,263.176V247.69l-11.643,7.744L62,263.176z"/>
	<path style="fill:#E6E6E6;stroke:#E6E6E6;stroke-width:20;stroke-miterlimit:10;" d="M426,299.459v-88.051l66.215,44.025
		L426,299.459z M448,247.692v15.484l11.645-7.743L448,247.692z"/>
	<path style="fill:#E6E6E6;stroke:#E6E6E6;stroke-width:20;stroke-miterlimit:10;" d="M298.303,84.134h-86.054l43.026-66.215
		L298.303,84.134z M247.708,61.134h15.133l-7.566-11.645L247.708,61.134z"/>
	<path style="fill:#E6E6E6;stroke:#E6E6E6;stroke-width:20;stroke-miterlimit:10;" d="M212.249,426.134h86.054l-43.026,66.214
		L212.249,426.134z M262.842,449.134h-15.133l7.568,11.645L262.842,449.134z"/>
	<path style="fill:none;stroke:#E6E6E6;stroke-width:40;stroke-linecap:round;stroke-miterlimit:10;" d="M255.276,64.767"/>
	<path style="fill:none;stroke:#E6E6E6;stroke-width:40;stroke-linecap:round;stroke-miterlimit:10;" d="M257.275,443.434"/>
</g>
<g id="Layer_1">
</g>
</svg>
