<?xml version="1.0" standalone="no"?>
<!DOCTYPE svg PUBLIC "-//W3C//DTD SVG 1.1//EN" "http://www.w3.org/Graphics/SVG/1.1/DTD/svg11.dtd">
<svg width="128px" height="128px" version="1.1" xmlns="http://www.w3.org/2000/svg" xmlns:xlink="http://www.w3.org/1999/xlink" xml:space="preserve" style="fill-rule:evenodd;clip-rule:evenodd;stroke-linejoin:round;stroke-miterlimit:1.41421;">
    <g>
        <g id="Fi DirBlur">
            <g>
                <path d="M46.2416,22.6439C33.2302,22.6439 22.6827,33.1914 22.6827,46.2029C22.6827,59.2136 33.2302,69.7611 46.2416,69.7611C59.2531,69.7611 69.8006,59.2136 69.8006,46.2029C69.8006,33.1914 59.2531,22.6439 46.2416,22.6439M46.2416,29.6318C55.379,29.6318 62.8127,37.0655 62.8127,46.2029C62.8127,55.3402 55.379,62.7732 46.2416,62.7732C37.1043,62.7732 29.6706,55.3402 29.6706,46.2029C29.6706,37.0655 37.1043,29.6318 46.2416,29.6318" style="fill:rgb(153,153,153);fill-rule:nonzero;"/>
                <path d="M12.321,47.5553L12.321,44.8503L10.2868,46.2024L12.321,47.5553ZM16.5138,38.5116L16.5138,53.894L4.946,46.2024L16.5138,38.5116Z" style="fill:rgb(230,230,230);fill-rule:nonzero;"/>
                <path d="M19.0138,58.5585L0.430695,46.2023L19.0138,33.8473L19.0138,58.5585Z" style="fill:rgb(230,230,230);"/>
                <path d="M80.1036,44.8502L80.1036,47.5552L82.1377,46.2031L80.1036,44.8502ZM75.9108,53.8939L75.9108,38.5115L87.4786,46.2031L75.9108,53.8939Z" style="fill:rgb(230,230,230);fill-rule:nonzero;"/>
                <path d="M73.4108,58.5582L73.4108,33.847L91.9939,46.2032L73.4108,58.5582Z" style="fill:rgb(230,230,230);"/>
                <path d="M44.8905,12.321L47.5347,12.321L46.2126,10.2868L44.8905,12.321ZM53.7294,16.5138L38.6957,16.5138L46.2126,4.946L53.7294,16.5138Z" style="fill:rgb(230,230,230);fill-rule:nonzero;"/>
                <path d="M34.0897,19.0138L46.2126,0.357816L58.3354,19.0138L34.0897,19.0138Z" style="fill:rgb(230,230,230);"/>
                <path d="M47.5345,80.1036L44.8903,80.1036L46.2124,82.1377L47.5345,80.1036ZM38.6962,75.9108L53.7292,75.9108L46.2124,87.4786L38.6962,75.9108Z" style="fill:rgb(230,230,230);fill-rule:nonzero;"/>
                <path d="M46.2123,92.0669L34.0904,73.4108L58.3352,73.4108L46.2123,92.0669Z" style="fill:rgb(230,230,230);"/>
            </g>
            <path d="M109.934,15.519C109.934,15.519 65.8696,65.307 65.2016,89.301C64.5116,114.075 76.8026,122.948 95.3646,122.645C110.797,122.393 124.219,113.629 123.781,91.61C123.542,79.619 113.683,65.063 107.336,55.869C92.7936,34.802 109.934,15.519 109.934,15.519" style="fill:rgb(153,153,153);fill-rule:nonzero;"/>
            <path d="M112.578,77.1016C114.829,82.4056 114.912,87.4356 112.764,88.3366C110.615,89.2386 107.047,85.6676 104.796,80.3636C102.545,75.0596 102.462,70.0296 104.611,69.1286C106.76,68.2266 110.327,71.7976 112.578,77.1016" style="fill:rgb(230,230,230);fill-rule:nonzero;"/>
        </g>
    </g>
</svg>
