<?xml version="1.0" encoding="iso-8859-1"?>
<!-- Generator: Adobe Illustrator 16.0.3, SVG Export Plug-In . SVG Version: 6.00 Build 0)  -->
<!DOCTYPE svg PUBLIC "-//W3C//DTD SVG 1.1//EN" "http://www.w3.org/Graphics/SVG/1.1/DTD/svg11.dtd">
<svg version="1.1" id="Im_ImageStat" xmlns="http://www.w3.org/2000/svg" xmlns:xlink="http://www.w3.org/1999/xlink" x="0px"
	 y="0px" width="128px" height="128px" viewBox="0 0 128 128" style="enable-background:new 0 0 128 128;" xml:space="preserve">
<g>
	<g>
		<polyline style="fill:none;stroke:#99993D;stroke-width:8;stroke-miterlimit:10;" points="6,107 22,97 35,107 52,82 62,96 
			89.774,83.375 		"/>
		<g>
			<polygon style="fill:#99993D;" points="90.362,87.49 95,81 87.061,80.228 			"/>
		</g>
	</g>
</g>
<g>
	<g>
		<line style="fill:none;stroke:#993D3D;stroke-width:8;stroke-miterlimit:10;" x1="6" y1="66" x2="6" y2="126"/>
		<g>
			<polygon style="fill:#993D3D;" points="2.011,67 6,60.092 9.989,67 			"/>
		</g>
	</g>
</g>
<g>
	<g>
		<line style="fill:none;stroke:#993D3D;stroke-width:8;stroke-miterlimit:10;" x1="6" y1="122" x2="106" y2="122"/>
		<g>
			<polygon style="fill:#993D3D;" points="105,125.989 111.908,122 105,118.011 			"/>
		</g>
	</g>
</g>
<g>
	<path style="fill:#999999;" d="M88,55c0,0,24,42,28,40s12-7,12-11S94,50,94,50L88,55z"/>
	<circle style="fill:none;stroke:#B3B3B3;stroke-width:10;stroke-miterlimit:10;" cx="72" cy="33" r="27"/>
</g>
</svg>
