<?xml version="1.0" encoding="iso-8859-1"?>
<!-- Generator: Adobe Illustrator 16.0.3, SVG Export Plug-In . SVG Version: 6.00 Build 0)  -->
<!DOCTYPE svg PUBLIC "-//W3C//DTD SVG 1.1//EN" "http://www.w3.org/Graphics/SVG/1.1/DTD/svg11.dtd">
<svg version="1.1" xmlns="http://www.w3.org/2000/svg" xmlns:xlink="http://www.w3.org/1999/xlink" x="0px" y="0px" width="128px"
	 height="128px" viewBox="0 0 128 128" style="enable-background:new 0 0 128 128;" xml:space="preserve">
<g id="Fi_Smooth">
	<g>
		<rect x="120" style="fill:#999999;" width="8" height="8"/>
		<rect x="104" style="fill:#999999;" width="8" height="8"/>
		<rect x="88" style="fill:#999999;" width="8" height="8"/>
		<rect x="72" style="fill:#999999;" width="8" height="8"/>
		<rect x="56" style="fill:#999999;" width="8" height="8"/>
		<rect x="40" style="fill:#999999;" width="8" height="8"/>
		<rect x="24" style="fill:#999999;" width="8" height="8"/>
		<rect x="8" style="fill:#999999;" width="8" height="8"/>
		<rect x="112" y="8" style="fill:#999999;" width="8" height="8"/>
		<rect x="96" y="8" style="fill:#999999;" width="8" height="8"/>
		<rect x="80" y="8" style="fill:#999999;" width="8" height="8"/>
		<rect x="64" y="8" style="fill:#999999;" width="8" height="8"/>
		<rect x="48" y="8" style="fill:#999999;" width="8" height="8"/>
		<rect x="32" y="8" style="fill:#999999;" width="8" height="8"/>
		<rect x="16" y="8" style="fill:#999999;" width="8" height="8"/>
		<rect y="8" style="fill:#999999;" width="8" height="8"/>
		<rect x="104" y="16" style="fill:#999999;" width="8" height="8"/>
		<rect x="88" y="16" style="fill:#999999;" width="8" height="8"/>
		<rect x="72" y="16" style="fill:#999999;" width="8" height="8"/>
		<rect x="56" y="16" style="fill:#999999;" width="8" height="8"/>
		<rect x="40" y="16" style="fill:#999999;" width="8" height="8"/>
		<rect x="24" y="16" style="fill:#999999;" width="8" height="8"/>
		<rect x="8" y="16" style="fill:#999999;" width="8" height="8"/>
		<rect x="96" y="24" style="fill:#999999;" width="8" height="8"/>
		<rect x="80" y="24" style="fill:#999999;" width="8" height="8"/>
		<rect x="64" y="24" style="fill:#999999;" width="8" height="8"/>
		<rect x="48" y="24" style="fill:#999999;" width="8" height="8"/>
		<rect x="32" y="24" style="fill:#999999;" width="8" height="8"/>
		<rect x="16" y="24" style="fill:#999999;" width="8" height="8"/>
		<rect y="24" style="fill:#999999;" width="8" height="8"/>
		<rect x="88" y="32" style="fill:#999999;" width="8" height="8"/>
		<rect x="72" y="32" style="fill:#999999;" width="8" height="8"/>
		<rect x="56" y="32" style="fill:#999999;" width="8" height="8"/>
		<rect x="40" y="32" style="fill:#999999;" width="8" height="8"/>
		<rect x="24" y="32" style="fill:#999999;" width="8" height="8"/>
		<rect x="8" y="32" style="fill:#999999;" width="8" height="8"/>
		<rect x="80" y="40" style="fill:#999999;" width="8" height="8"/>
		<rect x="64" y="40" style="fill:#999999;" width="8" height="8"/>
		<rect x="48" y="40" style="fill:#999999;" width="8" height="8"/>
		<rect x="32" y="40" style="fill:#999999;" width="8" height="8"/>
		<rect x="16" y="40" style="fill:#999999;" width="8" height="8"/>
		<rect y="40" style="fill:#999999;" width="8" height="8"/>
		<rect x="72" y="48" style="fill:#999999;" width="8" height="8"/>
		<rect x="56" y="48" style="fill:#999999;" width="8" height="8"/>
		<rect x="40" y="48" style="fill:#999999;" width="8" height="8"/>
		<rect x="24" y="48" style="fill:#999999;" width="8" height="8"/>
		<rect x="8" y="48" style="fill:#999999;" width="8" height="8"/>
		<rect x="64" y="56" style="fill:#999999;" width="8" height="8"/>
		<rect x="48" y="56" style="fill:#999999;" width="8" height="8"/>
		<rect x="32" y="56" style="fill:#999999;" width="8" height="8"/>
		<rect x="16" y="56" style="fill:#999999;" width="8" height="8"/>
		<rect y="56" style="fill:#999999;" width="8" height="8"/>
		<rect x="56" y="64" style="fill:#999999;" width="8" height="8"/>
		<rect x="40" y="64" style="fill:#999999;" width="8" height="8"/>
		<rect x="24" y="64" style="fill:#999999;" width="8" height="8"/>
		<rect x="8" y="64" style="fill:#999999;" width="8" height="8"/>
		<rect x="48" y="72" style="fill:#999999;" width="8" height="8"/>
		<rect x="32" y="72" style="fill:#999999;" width="8" height="8"/>
		<rect x="16" y="72" style="fill:#999999;" width="8" height="8"/>
		<rect y="72" style="fill:#999999;" width="8" height="8"/>
		<rect x="40" y="80" style="fill:#999999;" width="8" height="8"/>
		<rect x="24" y="80" style="fill:#999999;" width="8" height="8"/>
		<rect x="8" y="80" style="fill:#999999;" width="8" height="8"/>
		<rect x="32" y="88" style="fill:#999999;" width="8" height="8"/>
		<rect x="16" y="88" style="fill:#999999;" width="8" height="8"/>
		<rect y="88" style="fill:#999999;" width="8" height="8"/>
		<rect x="24" y="96" style="fill:#999999;" width="8" height="8"/>
		<rect x="8" y="96" style="fill:#999999;" width="8" height="8"/>
		<rect x="16" y="104" style="fill:#999999;" width="8" height="8"/>
		<rect y="104" style="fill:#999999;" width="8" height="8"/>
		<rect x="8" y="112" style="fill:#999999;" width="8" height="8"/>
		<rect y="120" style="fill:#999999;" width="8" height="8"/>
	</g>
	<path style="fill:#999999;" d="M97.392,126.225"/>
	<path style="fill:#999999;" d="M102.16,19.606"/>
	<path style="fill:#999999;" d="M109.934,15.519c0,0-44.064,49.788-44.732,73.782c-0.689,24.773,11.602,33.647,30.163,33.344
		c15.433-0.252,28.854-9.016,28.417-31.034c-0.239-11.991-10.1-26.548-16.445-35.742C92.793,34.802,109.934,15.519,109.934,15.519z"
		/>
	<path style="fill:#E6E6E6;" d="M112.578,77.102c2.25,5.304,2.334,10.334,0.186,11.235c-2.149,0.901-5.717-2.669-7.968-7.974
		c-2.251-5.304-2.334-10.334-0.185-11.234C106.76,68.227,110.326,71.798,112.578,77.102z"/>
</g>
<g id="Layer_1">
</g>
</svg>
