<?xml version="1.0" encoding="iso-8859-1"?>
<!-- Generator: Adobe Illustrator 16.0.3, SVG Export Plug-In . SVG Version: 6.00 Build 0)  -->
<!DOCTYPE svg PUBLIC "-//W3C//DTD SVG 1.1//EN" "http://www.w3.org/Graphics/SVG/1.1/DTD/svg11.dtd">
<svg version="1.1" xmlns="http://www.w3.org/2000/svg" xmlns:xlink="http://www.w3.org/1999/xlink" x="0px" y="0px"
	 width="118.147px" height="120.898px" viewBox="0 0 118.147 120.898" style="enable-background:new 0 0 118.147 120.898;"
	 xml:space="preserve">
<g id="Dr_Plasma">
	<path style="fill:#993D3D;" d="M6,3.314c8-8,24,0,24,8s-8,8-8,16s24,16,24,24s-32,1.001-40,0S-2,11.314,6,3.314z"/>
	<path style="fill:#993D3D;" d="M49,40.314c8,8,16,8,16,24c0,16,8,16,16,16s-8-24-8-32s16-24-8-24S41,32.314,49,40.314z"/>
	<path style="fill:#993D3D;" d="M78,10.314c0,8,16,9,16,17s0,15,8,23s16-39,8-40C102.062,9.322,78,2.314,78,10.314z"/>
	<path style="fill:#993D3D;" d="M45.979,70.606c-9.156-6.501-9.156-6.501-22.541-7.044c-13.385-0.545-3.531,24.369,9.854,24.913
		C46.677,89.02,55.135,77.107,45.979,70.606z"/>
	<path style="fill:#993D3D;" d="M61,90.314c-12,0-23.75,23.792-35.75,7.792S1.5,81.898,1.5,105.898s47.5,0,59.5,0
		S73,90.315,61,90.314z"/>
	<path style="fill:#993D3D;" d="M44.752,14.564c7.681-2.235,17.597,3.212,15.363-4.47c-2.235-7.682-2.235-7.682-9.917-5.447
		C42.518,6.882,37.071,16.798,44.752,14.564z"/>
	<path style="fill:#00733D;" d="M114.834,8.834c8,8,0,24-8,24s-8-8-16-8s-16,24-24,24s-1.001-32,0-40S106.834,0.834,114.834,8.834z"
		/>
	<path style="fill:#00733D;" d="M77.834,51.834c-8,8-8,16-24,16s-16,8-16,16s24-8,32-8s24,16,24-8S85.834,43.834,77.834,51.834z"/>
	<path style="fill:#00733D;" d="M107.834,80.834c-8,0-9,16-17,16s-15,0-23,8s39,16,40,8
		C108.826,104.896,115.834,80.834,107.834,80.834z"/>
	<path style="fill:#00733D;" d="M47.542,48.813c6.501-9.156,6.501-9.156,7.044-22.541c0.545-13.385-24.369-3.531-24.913,9.854
		C29.129,49.511,41.041,57.969,47.542,48.813z"/>
	<path style="fill:#00733D;" d="M27.833,63.898c0-12-23.917-23.783-7.917-35.783S36,4.334,12,4.334s0,47.564,0,59.564
		S27.833,75.898,27.833,63.898z"/>
	<path style="fill:#00733D;" d="M103.584,47.586c2.235,7.681-3.212,17.598,4.47,15.363c7.682-2.235,7.682-2.235,5.447-9.917
		C111.266,45.352,101.35,39.905,103.584,47.586z"/>
	<path style="fill:#3D3D99;" d="M110.396,117.585c-8,8-24,0-24-8s8-8,8-16s-24-16-24-24s32-1.001,40,0
		S118.396,109.585,110.396,117.585z"/>
	<path style="fill:#3D3D99;" d="M67.396,80.585c-8-8-16-8-16-24c0-16-8-16-16-16s8,24,8,32s-16,24,8,24
		C75.396,96.585,75.396,88.585,67.396,80.585z"/>
	<path style="fill:#3D3D99;" d="M38.397,110.585c0-8-16-9-16-17s0-15-8-23s-16,39-8,40
		C14.335,111.577,38.397,118.585,38.397,110.585z"/>
	<path style="fill:#3D3D99;" d="M70.418,50.292c9.156,6.501,9.156,6.501,22.541,7.044c13.385,0.545,3.531-24.369-9.854-24.913
		C69.72,31.879,61.262,43.792,70.418,50.292z"/>
	<path style="fill:#3D3D99;" d="M55,30.584c12,0,23.949-24.343,35.949-8.343s23.947,15.657,23.947-8.343s-47.896,0-59.896,0
		S43,30.583,55,30.584z"/>
	<path style="fill:#3D3D99;" d="M71.645,106.335c-7.682,2.235-17.598-3.212-15.363,4.47s2.235,7.682,9.917,5.447
		C73.879,114.017,79.326,104.101,71.645,106.335z"/>
</g>
<g id="Layer_1">
</g>
</svg>
