<?xml version="1.0" encoding="iso-8859-1"?>
<!-- Generator: Adobe Illustrator 16.0.3, SVG Export Plug-In . SVG Version: 6.00 Build 0)  -->
<!DOCTYPE svg PUBLIC "-//W3C//DTD SVG 1.1//EN" "http://www.w3.org/Graphics/SVG/1.1/DTD/svg11.dtd">
<svg version="1.1" xmlns="http://www.w3.org/2000/svg" xmlns:xlink="http://www.w3.org/1999/xlink" x="0px" y="0px"
	 width="58.617px" height="110.705px" viewBox="0 0 58.617 110.705" style="enable-background:new 0 0 58.617 110.705;"
	 xml:space="preserve">
<g id="Fi_Blur">
	<path style="fill:#999999;" d="M32.218,110.705"/>
	<path style="fill:#999999;" d="M36.986,4.087"/>
	<path style="fill:#999999;" d="M44.76,0c0,0-44.064,49.788-44.732,73.782c-0.69,24.773,11.601,33.647,30.163,33.344
		c15.432-0.252,28.854-9.016,28.416-31.034C58.368,64.1,48.508,49.543,42.161,40.349C27.62,19.282,44.76,0,44.76,0z"/>
	<path style="fill:#E6E6E6;" d="M47.403,61.582c2.251,5.304,2.334,10.334,0.186,11.235s-5.716-2.669-7.967-7.974
		c-2.251-5.304-2.334-10.334-0.186-11.235C41.586,52.707,45.152,56.278,47.403,61.582z"/>
</g>
<g id="Layer_1">
</g>
</svg>
