<?xml version="1.0" standalone="no"?>
<!DOCTYPE svg PUBLIC "-//W3C//DTD SVG 1.1//EN" "http://www.w3.org/Graphics/SVG/1.1/DTD/svg11.dtd">
<svg width="100%" height="100%" viewBox="0 0 128 128" version="1.1" xmlns="http://www.w3.org/2000/svg" xmlns:xlink="http://www.w3.org/1999/xlink" xml:space="preserve" style="fill-rule:evenodd;clip-rule:evenodd;stroke-linejoin:round;stroke-miterlimit:1.41421;">
    <g id="Fi Smooth">
        <rect x="120" y="0" width="8" height="8" style="fill:#999;fill-rule:nonzero;"/>
        <rect x="104" y="0" width="7.999" height="8" style="fill:#999;fill-rule:nonzero;"/>
        <rect x="88" y="0" width="8" height="8" style="fill:#999;fill-rule:nonzero;"/>
        <rect x="72" y="0" width="8" height="8" style="fill:#999;fill-rule:nonzero;"/>
        <rect x="56" y="0" width="8" height="8" style="fill:#999;fill-rule:nonzero;"/>
        <rect x="40" y="0" width="8" height="8" style="fill:#999;fill-rule:nonzero;"/>
        <rect x="24" y="0" width="8" height="8" style="fill:#999;fill-rule:nonzero;"/>
        <rect x="8" y="0" width="8" height="8" style="fill:#999;fill-rule:nonzero;"/>
        <rect x="112" y="8" width="8" height="8" style="fill:#999;fill-rule:nonzero;"/>
        <rect x="96" y="8" width="8" height="8" style="fill:#999;fill-rule:nonzero;"/>
        <rect x="80" y="8" width="8" height="8" style="fill:#999;fill-rule:nonzero;"/>
        <rect x="64" y="8" width="8" height="8" style="fill:#999;fill-rule:nonzero;"/>
        <rect x="48" y="8" width="8" height="8" style="fill:#999;fill-rule:nonzero;"/>
        <rect x="32" y="8" width="8" height="8" style="fill:#999;fill-rule:nonzero;"/>
        <rect x="16" y="8" width="8" height="8" style="fill:#999;fill-rule:nonzero;"/>
        <rect x="0" y="8" width="8" height="8" style="fill:#999;fill-rule:nonzero;"/>
        <rect x="104" y="16" width="8" height="8" style="fill:#999;fill-rule:nonzero;"/>
        <rect x="88" y="16" width="8" height="8" style="fill:#999;fill-rule:nonzero;"/>
        <rect x="72" y="16" width="8" height="8" style="fill:#999;fill-rule:nonzero;"/>
        <rect x="56" y="16" width="8" height="8" style="fill:#999;fill-rule:nonzero;"/>
        <rect x="40" y="16" width="8" height="8" style="fill:#999;fill-rule:nonzero;"/>
        <rect x="24" y="16" width="8" height="8" style="fill:#999;fill-rule:nonzero;"/>
        <rect x="8" y="16" width="8" height="8" style="fill:#999;fill-rule:nonzero;"/>
        <rect x="96" y="24" width="8" height="8" style="fill:#999;fill-rule:nonzero;"/>
        <rect x="80" y="24" width="8" height="8" style="fill:#999;fill-rule:nonzero;"/>
        <rect x="64" y="24" width="8" height="8" style="fill:#999;fill-rule:nonzero;"/>
        <rect x="48" y="24" width="8" height="8" style="fill:#999;fill-rule:nonzero;"/>
        <rect x="32" y="24" width="8" height="8" style="fill:#999;fill-rule:nonzero;"/>
        <rect x="16" y="24" width="8" height="8" style="fill:#999;fill-rule:nonzero;"/>
        <rect x="0" y="24" width="8" height="8" style="fill:#999;fill-rule:nonzero;"/>
        <rect x="88" y="32" width="8" height="8" style="fill:#999;fill-rule:nonzero;"/>
        <rect x="72" y="32" width="8" height="8" style="fill:#999;fill-rule:nonzero;"/>
        <rect x="56" y="32" width="8" height="8" style="fill:#999;fill-rule:nonzero;"/>
        <rect x="40" y="32" width="8" height="8" style="fill:#999;fill-rule:nonzero;"/>
        <rect x="24" y="32" width="8" height="8" style="fill:#999;fill-rule:nonzero;"/>
        <rect x="8" y="32" width="8" height="8" style="fill:#999;fill-rule:nonzero;"/>
        <rect x="80" y="40" width="8" height="8" style="fill:#999;fill-rule:nonzero;"/>
        <rect x="64" y="40" width="8" height="8" style="fill:#999;fill-rule:nonzero;"/>
        <rect x="48" y="40" width="8" height="8" style="fill:#999;fill-rule:nonzero;"/>
        <rect x="32" y="40" width="8" height="8" style="fill:#999;fill-rule:nonzero;"/>
        <rect x="16" y="40" width="8" height="8" style="fill:#999;fill-rule:nonzero;"/>
        <rect x="0" y="40" width="8" height="8" style="fill:#999;fill-rule:nonzero;"/>
        <rect x="72" y="48" width="8" height="8" style="fill:#999;fill-rule:nonzero;"/>
        <rect x="56" y="48" width="8" height="8" style="fill:#999;fill-rule:nonzero;"/>
        <rect x="40" y="48" width="8" height="8" style="fill:#999;fill-rule:nonzero;"/>
        <rect x="24" y="48" width="8" height="8" style="fill:#999;fill-rule:nonzero;"/>
        <rect x="8" y="48" width="8" height="8" style="fill:#999;fill-rule:nonzero;"/>
        <rect x="64" y="56" width="8" height="8" style="fill:#999;fill-rule:nonzero;"/>
        <rect x="48" y="56" width="8" height="8" style="fill:#999;fill-rule:nonzero;"/>
        <rect x="32" y="56" width="8" height="8" style="fill:#999;fill-rule:nonzero;"/>
        <rect x="16" y="56" width="8" height="8" style="fill:#999;fill-rule:nonzero;"/>
        <rect x="0" y="56" width="8" height="8" style="fill:#999;fill-rule:nonzero;"/>
        <rect x="56" y="64" width="8" height="8" style="fill:#999;fill-rule:nonzero;"/>
        <rect x="40" y="64" width="8" height="8" style="fill:#999;fill-rule:nonzero;"/>
        <rect x="24" y="64" width="8" height="8" style="fill:#999;fill-rule:nonzero;"/>
        <rect x="8" y="64" width="8" height="8" style="fill:#999;fill-rule:nonzero;"/>
        <rect x="48" y="72" width="8" height="8" style="fill:#999;fill-rule:nonzero;"/>
        <rect x="32" y="72" width="8" height="8" style="fill:#999;fill-rule:nonzero;"/>
        <rect x="16" y="72" width="8" height="8" style="fill:#999;fill-rule:nonzero;"/>
        <rect x="0" y="72" width="8" height="8" style="fill:#999;fill-rule:nonzero;"/>
        <rect x="40" y="80" width="8" height="8" style="fill:#999;fill-rule:nonzero;"/>
        <rect x="24" y="80" width="8" height="8" style="fill:#999;fill-rule:nonzero;"/>
        <rect x="8" y="80" width="8" height="8" style="fill:#999;fill-rule:nonzero;"/>
        <rect x="32" y="88" width="8" height="8" style="fill:#999;fill-rule:nonzero;"/>
        <rect x="16" y="88" width="8" height="8" style="fill:#999;fill-rule:nonzero;"/>
        <rect x="0" y="88.001" width="8" height="7.999" style="fill:#999;fill-rule:nonzero;"/>
        <rect x="24" y="96" width="8" height="8" style="fill:#999;fill-rule:nonzero;"/>
        <rect x="8" y="96" width="8" height="8" style="fill:#999;fill-rule:nonzero;"/>
        <rect x="16" y="104" width="8" height="8" style="fill:#999;fill-rule:nonzero;"/>
        <rect x="0" y="104" width="8" height="8" style="fill:#999;fill-rule:nonzero;"/>
        <rect x="8" y="112" width="8" height="8" style="fill:#999;fill-rule:nonzero;"/>
        <rect x="0" y="120" width="8" height="8" style="fill:#999;fill-rule:nonzero;"/>
        <path d="M109.934,15.519C109.934,15.519 65.8696,65.307 65.2016,89.301C64.5116,114.075 76.8026,122.948 95.3646,122.645C110.797,122.393 124.219,113.629 123.781,91.61C123.542,79.619 113.683,65.063 107.336,55.869C92.7936,34.802 109.934,15.519 109.934,15.519" style="fill:#999;fill-rule:nonzero;"/>
        <path d="M112.578,77.1016C114.829,82.4056 114.912,87.4356 112.764,88.3366C110.615,89.2386 107.047,85.6676 104.796,80.3636C102.545,75.0596 102.462,70.0296 104.611,69.1286C106.76,68.2266 110.327,71.7976 112.578,77.1016" style="fill:#e6e6e6;fill-rule:nonzero;"/>
    </g>
</svg>
