<?xml version="1.0" standalone="no"?>
<!DOCTYPE svg PUBLIC "-//W3C//DTD SVG 1.1//EN" "http://www.w3.org/Graphics/SVG/1.1/DTD/svg11.dtd">
<svg width="128px" height="128px" version="1.1" xmlns="http://www.w3.org/2000/svg" xmlns:xlink="http://www.w3.org/1999/xlink" xml:space="preserve" style="fill-rule:evenodd;clip-rule:evenodd;stroke-linejoin:round;stroke-miterlimit:1.41421;">
    <g>
        <g id="Co ColorMatrix">
            <g>
                <path d="M28.9007,40.7759L23.1479,40.7759L23.1479,25.0255C23.1479,24.7028 23.151,24.3149 23.1572,23.8619C23.1634,23.4089 23.1758,22.9372 23.1944,22.447C23.2131,21.9567 23.2317,21.4634 23.2503,20.9669C23.2689,20.4704 23.2844,20.0174 23.2968,19.6078C23.2348,19.6823 23.1293,19.794 22.9803,19.9429C22.8314,20.0919 22.6638,20.2563 22.4777,20.4363C22.2915,20.6163 22.0991,20.7993 21.9005,20.9855C21.7019,21.1717 21.5096,21.3392 21.3234,21.4882L18.1956,24.0015L15.403,20.5387L24.1719,13.5571L28.9007,13.5571L28.9007,40.7759Z" style="fill:rgb(200,200,200);fill-rule:nonzero;"/>
                <path d="M74.3274,27.1665C74.3274,29.3634 74.1567,31.3244 73.8154,33.0496C73.4741,34.7749 72.9279,36.2394 72.177,37.4434C71.4261,38.6473 70.458,39.5658 69.2727,40.1988C68.0874,40.8317 66.657,41.1482 64.9814,41.1482C63.4051,41.1482 62.0336,40.8317 60.8669,40.1988C59.7002,39.5658 58.7321,38.6473 57.9626,37.4434C57.1931,36.2394 56.619,34.7749 56.2405,33.0496C55.8619,31.3244 55.6726,29.3634 55.6726,27.1665C55.6726,24.9696 55.8433,23.0024 56.1846,21.2648C56.5259,19.5271 57.069,18.0564 57.8137,16.8524C58.5584,15.6485 59.5203,14.7269 60.6994,14.0877C61.8785,13.4485 63.3058,13.1289 64.9814,13.1289C66.5453,13.1289 67.9105,13.4454 69.0772,14.0784C70.2439,14.7114 71.2182,15.6299 72.0002,16.8338C72.7821,18.0377 73.3655,19.5085 73.7502,21.2462C74.135,22.9838 74.3274,24.9572 74.3274,27.1665ZM61.4068,27.1665C61.4068,30.2694 61.6737,32.6028 62.2074,34.1667C62.7411,35.7306 63.6657,36.5125 64.9814,36.5125C66.2722,36.5125 67.2,35.7368 67.7647,34.1853C68.3294,32.6338 68.6118,30.2943 68.6118,27.1665C68.6118,24.0512 68.3294,21.7085 67.7647,20.1384C67.2,18.5683 66.2722,17.7833 64.9814,17.7833C64.3236,17.7833 63.7681,17.9819 63.3151,18.3791C62.8621,18.7762 62.4928,19.3658 62.2074,20.1477C61.9219,20.9297 61.7171,21.9071 61.593,23.08C61.4689,24.2529 61.4068,25.6151 61.4068,27.1665Z" style="fill:rgb(200,200,200);fill-rule:nonzero;"/>
                <path d="M115.137,27.1665C115.137,29.3634 114.966,31.3244 114.625,33.0496C114.284,34.7749 113.737,36.2394 112.987,37.4434C112.236,38.6473 111.268,39.5658 110.082,40.1988C108.897,40.8317 107.466,41.1482 105.791,41.1482C104.215,41.1482 102.843,40.8317 101.676,40.1988C100.51,39.5658 99.5416,38.6473 98.7721,37.4434C98.0026,36.2394 97.4286,34.7749 97.05,33.0496C96.6714,31.3244 96.4822,29.3634 96.4822,27.1665C96.4822,24.9696 96.6528,23.0024 96.9941,21.2648C97.3355,19.5271 97.8785,18.0564 98.6232,16.8524C99.3679,15.6485 100.33,14.7269 101.509,14.0877C102.688,13.4485 104.115,13.1289 105.791,13.1289C107.355,13.1289 108.72,13.4454 109.887,14.0784C111.053,14.7114 112.028,15.6299 112.81,16.8338C113.592,18.0377 114.175,19.5085 114.56,21.2462C114.945,22.9838 115.137,24.9572 115.137,27.1665ZM102.216,27.1665C102.216,30.2694 102.483,32.6028 103.017,34.1667C103.551,35.7306 104.475,36.5125 105.791,36.5125C107.082,36.5125 108.009,35.7368 108.574,34.1853C109.139,32.6338 109.421,30.2943 109.421,27.1665C109.421,24.0512 109.139,21.7085 108.574,20.1384C108.009,18.5683 107.082,17.7833 105.791,17.7833C105.133,17.7833 104.578,17.9819 104.125,18.3791C103.672,18.7762 103.302,19.3658 103.017,20.1477C102.731,20.9297 102.527,21.9071 102.403,23.08C102.278,24.2529 102.216,25.6151 102.216,27.1665Z" style="fill:rgb(200,200,200);fill-rule:nonzero;"/>
                <path d="M33.5178,65.2951C33.5178,67.492 33.3472,69.453 33.0059,71.1782C32.6645,72.9035 32.1184,74.368 31.3675,75.572C30.6166,76.7759 29.6485,77.6944 28.4632,78.3274C27.2779,78.9604 25.8474,79.2769 24.1719,79.2769C22.5956,79.2769 21.2241,78.9604 20.0574,78.3274C18.8907,77.6944 17.9226,76.7759 17.1531,75.572C16.3835,74.368 15.8095,72.9035 15.4309,71.1782C15.0524,69.453 14.8631,67.492 14.8631,65.2951C14.8631,63.0983 15.0338,61.131 15.3751,59.3934C15.7164,57.6557 16.2594,56.185 17.0041,54.981C17.7488,53.7771 18.7107,52.8555 19.8898,52.2163C21.0689,51.5771 22.4963,51.2575 24.1719,51.2575C25.7357,51.2575 27.101,51.574 28.2677,52.207C29.4344,52.84 30.4087,53.7585 31.1906,54.9624C31.9726,56.1663 32.5559,57.6371 32.9407,59.3748C33.3255,61.1124 33.5178,63.0858 33.5178,65.2951ZM20.5973,65.2951C20.5973,68.398 20.8642,70.7314 21.3979,72.2953C21.9316,73.8592 22.8562,74.6411 24.1719,74.6411C25.4627,74.6411 26.3904,73.8654 26.9552,72.3139C27.5199,70.7625 27.8023,68.4229 27.8023,65.2951C27.8023,62.1798 27.5199,59.8371 26.9552,58.267C26.3904,56.6969 25.4627,55.9119 24.1719,55.9119C23.514,55.9119 22.9586,56.1105 22.5056,56.5077C22.0526,56.9048 21.6833,57.4944 21.3979,58.2763C21.1124,59.0583 20.9076,60.0357 20.7835,61.2086C20.6594,62.3815 20.5973,63.7437 20.5973,65.2951Z" style="fill:rgb(200,200,200);fill-rule:nonzero;"/>
                <path d="M69.7102,78.9045L63.9574,78.9045L63.9574,63.1541C63.9574,62.8314 63.9605,62.4435 63.9667,61.9905C63.9729,61.5375 63.9853,61.0658 64.004,60.5756C64.0226,60.0853 64.0412,59.592 64.0598,59.0955C64.0784,58.599 64.0939,58.146 64.1064,57.7364C64.0443,57.8109 63.9388,57.9226 63.7899,58.0715C63.6409,58.2205 63.4734,58.3849 63.2872,58.5649C63.101,58.7449 62.9086,58.9279 62.71,59.1141C62.5115,59.3003 62.3191,59.4678 62.1329,59.6168L59.0052,62.1301L56.2125,58.6673L64.9814,51.6857L69.7102,51.6857L69.7102,78.9045Z" style="fill:rgb(200,200,200);fill-rule:nonzero;"/>
                <path d="M115.137,65.2951C115.137,67.492 114.966,69.453 114.625,71.1782C114.284,72.9035 113.737,74.368 112.987,75.572C112.236,76.7759 111.268,77.6944 110.082,78.3274C108.897,78.9604 107.466,79.2769 105.791,79.2769C104.215,79.2769 102.843,78.9604 101.676,78.3274C100.51,77.6944 99.5416,76.7759 98.7721,75.572C98.0026,74.368 97.4286,72.9035 97.05,71.1782C96.6714,69.453 96.4822,67.492 96.4822,65.2951C96.4822,63.0983 96.6528,61.131 96.9941,59.3934C97.3355,57.6557 97.8785,56.185 98.6232,54.981C99.3679,53.7771 100.33,52.8555 101.509,52.2163C102.688,51.5771 104.115,51.2575 105.791,51.2575C107.355,51.2575 108.72,51.574 109.887,52.207C111.053,52.84 112.028,53.7585 112.81,54.9624C113.592,56.1663 114.175,57.6371 114.56,59.3748C114.945,61.1124 115.137,63.0858 115.137,65.2951ZM102.216,65.2951C102.216,68.398 102.483,70.7314 103.017,72.2953C103.551,73.8592 104.475,74.6411 105.791,74.6411C107.082,74.6411 108.009,73.8654 108.574,72.3139C109.139,70.7625 109.421,68.4229 109.421,65.2951C109.421,62.1798 109.139,59.8371 108.574,58.267C108.009,56.6969 107.082,55.9119 105.791,55.9119C105.133,55.9119 104.578,56.1105 104.125,56.5077C103.672,56.9048 103.302,57.4944 103.017,58.2763C102.731,59.0583 102.527,60.0357 102.403,61.2086C102.278,62.3815 102.216,63.7437 102.216,65.2951Z" style="fill:rgb(200,200,200);fill-rule:nonzero;"/>
                <path d="M33.5178,103.424C33.5178,105.621 33.3472,107.582 33.0059,109.307C32.6645,111.032 32.1184,112.497 31.3675,113.701C30.6166,114.905 29.6485,115.823 28.4632,116.456C27.2779,117.089 25.8474,117.405 24.1719,117.405C22.5956,117.405 21.2241,117.089 20.0574,116.456C18.8907,115.823 17.9226,114.905 17.1531,113.701C16.3835,112.497 15.8095,111.032 15.4309,109.307C15.0524,107.582 14.8631,105.621 14.8631,103.424C14.8631,101.227 15.0338,99.2596 15.3751,97.522C15.7164,95.7844 16.2594,94.3136 17.0041,93.1096C17.7488,91.9057 18.7107,90.9841 19.8898,90.3449C21.0689,89.7057 22.4963,89.3861 24.1719,89.3861C25.7357,89.3861 27.101,89.7026 28.2677,90.3356C29.4344,90.9686 30.4087,91.8871 31.1906,93.091C31.9726,94.295 32.5559,95.7657 32.9407,97.5034C33.3255,99.241 33.5178,101.214 33.5178,103.424ZM20.5973,103.424C20.5973,106.527 20.8642,108.86 21.3979,110.424C21.9316,111.988 22.8562,112.77 24.1719,112.77C25.4627,112.77 26.3904,111.994 26.9552,110.443C27.5199,108.891 27.8023,106.551 27.8023,103.424C27.8023,100.308 27.5199,97.9657 26.9552,96.3956C26.3904,94.8256 25.4627,94.0405 24.1719,94.0405C23.514,94.0405 22.9586,94.2391 22.5056,94.6363C22.0526,95.0334 21.6833,95.623 21.3979,96.4049C21.1124,97.1869 20.9076,98.1643 20.7835,99.3372C20.6594,100.51 20.5973,101.872 20.5973,103.424Z" style="fill:rgb(200,200,200);fill-rule:nonzero;"/>
                <path d="M74.3274,103.424C74.3274,105.621 74.1567,107.582 73.8154,109.307C73.4741,111.032 72.9279,112.497 72.177,113.701C71.4261,114.905 70.458,115.823 69.2727,116.456C68.0874,117.089 66.657,117.405 64.9814,117.405C63.4051,117.405 62.0336,117.089 60.8669,116.456C59.7002,115.823 58.7321,114.905 57.9626,113.701C57.1931,112.497 56.619,111.032 56.2405,109.307C55.8619,107.582 55.6726,105.621 55.6726,103.424C55.6726,101.227 55.8433,99.2596 56.1846,97.522C56.5259,95.7844 57.069,94.3136 57.8137,93.1096C58.5584,91.9057 59.5203,90.9841 60.6994,90.3449C61.8785,89.7057 63.3058,89.3861 64.9814,89.3861C66.5453,89.3861 67.9105,89.7026 69.0772,90.3356C70.2439,90.9686 71.2182,91.8871 72.0002,93.091C72.7821,94.295 73.3655,95.7657 73.7502,97.5034C74.135,99.241 74.3274,101.214 74.3274,103.424ZM61.4068,103.424C61.4068,106.527 61.6737,108.86 62.2074,110.424C62.7411,111.988 63.6657,112.77 64.9814,112.77C66.2722,112.77 67.2,111.994 67.7647,110.443C68.3294,108.891 68.6118,106.551 68.6118,103.424C68.6118,100.308 68.3294,97.9657 67.7647,96.3956C67.2,94.8256 66.2722,94.0405 64.9814,94.0405C64.3236,94.0405 63.7681,94.2391 63.3151,94.6363C62.8621,95.0334 62.4928,95.623 62.2074,96.4049C61.9219,97.1869 61.7171,98.1643 61.593,99.3372C61.4689,100.51 61.4068,101.872 61.4068,103.424Z" style="fill:rgb(200,200,200);fill-rule:nonzero;"/>
                <path d="M110.52,117.033L104.767,117.033L104.767,101.283C104.767,100.96 104.77,100.572 104.776,100.119C104.782,99.6661 104.795,99.1945 104.813,98.7042C104.832,98.2139 104.851,97.7206 104.869,97.2241C104.888,96.7276 104.903,96.2746 104.916,95.865C104.854,95.9395 104.748,96.0512 104.599,96.2001C104.45,96.3491 104.283,96.5135 104.097,96.6935C103.911,96.8735 103.718,97.0565 103.52,97.2427C103.321,97.4289 103.129,97.5965 102.942,97.7454L99.8147,100.259L97.0221,96.7959L105.791,89.8143L110.52,89.8143L110.52,117.033Z" style="fill:rgb(200,200,200);fill-rule:nonzero;"/>
            </g>
        </g>
    </g>
</svg>
