<?xml version="1.0" encoding="UTF-8" standalone="no"?>
<!-- Created with Inkscape (http://www.inkscape.org/) -->

<svg
   xmlns:dc="http://purl.org/dc/elements/1.1/"
   xmlns:cc="http://creativecommons.org/ns#"
   xmlns:rdf="http://www.w3.org/1999/02/22-rdf-syntax-ns#"
   xmlns:svg="http://www.w3.org/2000/svg"
   xmlns="http://www.w3.org/2000/svg"
   xmlns:sodipodi="http://sodipodi.sourceforge.net/DTD/sodipodi-0.dtd"
   xmlns:inkscape="http://www.inkscape.org/namespaces/inkscape"
   width="79.628067"
   height="121.27727"
   id="svg3368"
   version="1.1"
   inkscape:version="0.91 r13725"
   viewBox="0 0 79.628067 121.27727"
   sodipodi:docname="net.nicholas-carroll.SimpleExpressionPlugin.svg">
  <defs
     id="defs3370" />
  <sodipodi:namedview
     id="base"
     pagecolor="#ffffff"
     bordercolor="#666666"
     borderopacity="1.0"
     inkscape:pageopacity="0.0"
     inkscape:pageshadow="2"
     inkscape:zoom="4.8439971"
     inkscape:cx="6.475592"
     inkscape:cy="85.634996"
     inkscape:current-layer="layer1"
     showgrid="true"
     inkscape:document-units="px"
     inkscape:grid-bbox="true"
     inkscape:snap-smooth-nodes="true"
     inkscape:window-width="1318"
     inkscape:window-height="724"
     inkscape:window-x="48"
     inkscape:window-y="0"
     inkscape:window-maximized="1"
     fit-margin-top="0"
     fit-margin-left="0"
     fit-margin-right="0"
     fit-margin-bottom="0" />
  <metadata
     id="metadata3373">
    <rdf:RDF>
      <cc:Work
         rdf:about="">
        <dc:format>image/svg+xml</dc:format>
        <dc:type
           rdf:resource="http://purl.org/dc/dcmitype/StillImage" />
        <dc:title></dc:title>
      </cc:Work>
    </rdf:RDF>
  </metadata>
  <g
     id="layer1"
     inkscape:label="Layer 1"
     inkscape:groupmode="layer"
     transform="translate(5.6994784,26.733182)">
    <path
       style="fill:#ffffff;fill-opacity:1;fill-rule:nonzero;stroke:none;stroke-width:1px;stroke-linecap:butt;stroke-linejoin:miter;stroke-opacity:1"
       id="path3394"
       d="m 12.788391,-26.733182 c -0.05506,1.919602 0.539064,3.748339 1.147674,5.542094 0.913152,2.651356 2.10666,5.182564 3.378332,7.676861 1.572736,2.8484 3.000606,5.7723803 4.411576,8.7031223 1.338908,2.61831 2.465316,5.32718 3.386978,8.11743 1.015968,2.95076 1.776688,5.966648 2.262296,9.0472957 0.540262,3.015648 0.402164,6.047772 0.0875,9.074948 -0.24954,1.822766 -0.517542,3.64632 -1.104406,5.396934 -0.256724,0.76581 -0.732142,1.8978 -1.035088,2.641224 -0.877764,2.145944 -1.911154,4.207304 -3.180314,6.145796 -0.489948,0.713566 -1.03343,1.405874 -1.794396,1.850384 -5.306468,3.099712 -4.155694,2.50396 -7.189944,3.999414 -0.456336,0.224512 -0.918338,0.43786 -1.36901,0.673538 -0.488878,0.255658 -1.9265382,1.07606 -1.448852,0.800056 1.159976,-0.67023 2.30508,-1.369028 3.495882,-1.982822 0.472196,-0.243392 -0.897368,0.569242 -1.335702,0.869364 -1.144396,0.783556 -1.44866,1.054348 -2.5384262,1.915414 -2.45836,1.993346 -4.495346,4.394868 -6.268646,7.000728 -1.323908,2.186476 -2.581292,4.41987 -3.41742399,6.840722 -0.601314,2.023346 -0.802334,4.122296 -0.642616,6.22053 0.247754,2.513986 1.138976,4.864912 2.19852999,7.134676 1.040082,2.025168 2.207648,3.993832 3.63079,5.776402 1.1143,1.395726 1.652132,1.897252 2.892618,3.19125 2.9582402,3.146742 6.4948522,5.60179 10.1404422,7.872058 1.89647,1.18602 3.764832,2.416116 5.662196,3.60058 0,0 -4.962684,3.16927 -4.962684,3.16927 l 0,0 C 17.435365,93.224423 15.615249,91.994911 13.747141,90.831891 10.097785,88.499813 6.5245608,86.019693 3.5600968,82.828119 c -2.62927599,-2.724974 -5.124474,-5.585466 -6.783818,-9.026392 -1.130596,-2.307914 -2.076584,-4.69894 -2.392498,-7.2697 -0.20905,-2.178258 -0.02586,-4.33744 0.56571,-6.452492 0.301238,-0.921696 0.432406,-1.412474 0.843432,-2.300902 0.750062,-1.621258 1.718658,-3.14198 2.569964,-4.709144 1.75786401,-2.661992 3.80628,-5.104044 6.241,-7.179974 3.99407,-3.260354 8.5081182,-5.78028 13.1156402,-8.078278 2.722636,-1.40456 1.408628,-0.755542 -2.95463,1.8288 -0.209876,0.12432 0.433356,-0.226168 0.636046,-0.361882 0.31432,-0.210456 0.58088,-0.491366 0.831308,-0.770698 0.14564,-0.16244 0.282434,-0.332616 0.423652,-0.498924 1.34152,-1.918316 2.540532,-3.903848 3.384542,-6.102398 0.0965,-0.237472 0.945648,-2.318938 1.041044,-2.586038 0.61336,-1.717368 0.89763,-3.51648 1.176574,-5.311502 0.350416,-2.98003 0.505748,-5.976544 0.016,-8.95473 -0.477956,-3.042442 -1.215536,-6.0316377 -2.264368,-8.9310617 -0.978144,-2.743904 -1.91171,-5.514858 -3.282068,-8.0963 -1.42299,-2.920128 -2.853952,-5.835824 -4.454704,-8.6642583 -1.28797,-2.512354 -2.5242422,-5.052285 -3.4675022,-7.718229 -0.654582,-1.823656 -1.279952,-3.660181 -1.46622,-5.600739 0,0 5.4491082,-2.776459 5.4491082,-2.776459 z"
       inkscape:connector-curvature="0" />
    <path
       style="fill:#ffffff;fill-opacity:1;fill-rule:nonzero;stroke:none;stroke-width:1px;stroke-linecap:butt;stroke-linejoin:miter;stroke-opacity:1"
       id="path3396"
       d="m 45.893487,-24.870545 c 2.776274,0.690181 5.471542,1.682439 8.186446,2.582911 3.167604,1.153028 6.418298,2.188271 9.36024,3.859246 2.138646,1.354872 2.68261,3.106893 3.174524,5.472987 0.266428,1.763692 0.513926,3.5992703 0.1449,5.3709703 -0.21995,1.055998 -0.433822,1.379636 -0.877964,2.347098 -0.796518,1.533 -1.915968,2.794722 -3.202154,3.924598 -1.117132,0.947616 -2.292592,1.647278 -3.146052,2.859698 -0.65257,1.193772 -1.069514,2.508014 -1.429644,3.81622 -0.394566,1.535228 -0.797548,3.064814 -1.272724,4.577214 -0.536664,1.7220557 -1.200378,3.3986617 -1.91692,5.0525577 -1.026136,2.32889 -2.071802,4.647992 -3.17548,6.941314 -1.081288,2.326086 -2.356298,4.54758 -3.664514,6.750762 -1.068388,1.646318 -2.046582,3.333456 -2.891246,5.104238 -0.827634,1.934954 -1.697174,3.850504 -2.507476,5.793024 -0.871688,1.811118 -1.55544,3.671872 -2.044312,5.618362 -0.57355,2.170134 -1.173802,4.322694 -1.536022,6.540134 -0.381882,2.13107 -0.320874,4.229346 0.19064,6.32371 0.781166,2.494218 2.364168,4.628762 4.063218,6.574502 2.638636,3.048116 5.733566,5.637916 8.91037,8.099404 3.702632,2.825818 7.60708,5.36458 11.566004,7.81215 2.170046,1.295936 4.314844,2.639224 6.261848,4.256066 1.306126,1.027194 2.511638,2.179258 3.841416,3.174914 0,0 -5.069744,3.195754 -5.069744,3.195754 l 0,0 c -1.299452,-1.038742 -2.535036,-2.154672 -3.81392,-3.2185 -1.887866,-1.587912 -3.919376,-2.994894 -5.983244,-4.343216 -3.897942,-2.543006 -7.780044,-5.109118 -11.502238,-7.907324 -3.28108,-2.425104 -6.415392,-5.049432 -9.163376,-8.078004 -1.768934,-2.002576 -3.45539,-4.189702 -4.333032,-6.74383 -0.53795,-2.168486 -0.635828,-4.346542 -0.24567,-6.558062 0.327218,-2.22266 0.886252,-4.382384 1.451248,-6.554556 0.468848,-1.993504 1.126392,-3.899674 2.059344,-5.730156 0.81692,-1.920662 1.622164,-3.84588 2.418326,-5.775212 0.822758,-1.827478 1.85512,-3.524138 2.95182,-5.19968 1.320998,-2.193972 2.648304,-4.387736 3.71796,-6.719318 1.109126,-2.256894 2.145026,-4.5473 3.09169,-6.877372 0.72099,-1.626916 1.38651,-3.276056 1.911208,-4.97824 0.468554,-1.49506 0.92657,-2.9865837 1.243292,-4.5241617 0.311502,-1.372278 0.84347,-2.69494 1.385226,-3.990246 0.11524,-0.226982 0.208854,-0.466322 0.34575,-0.680944 0.660518,-1.035544 1.872552,-1.543834 2.74135,-2.365602 1.311648,-1.08545 2.50645,-2.277774 3.396858,-3.74535 0.441006,-0.837152 0.724744,-1.25864 0.965302,-2.18488 0.440276,-1.695238 0.23911,-3.494248 -0.03224,-5.1941183 -0.489788,-2.173928 -1.036294,-3.745912 -2.957622,-5.035001 -2.85008,-1.694478 -5.992942,-2.804664 -9.11973,-3.873875 -2.785038,-0.903604 -5.580354,-1.894437 -8.499154,-2.258293 0,0 5.005498,-3.511893 5.005498,-3.511893 z"
       inkscape:connector-curvature="0" />
  </g>
</svg>
